<?xml version="1.0" standalone="no"?>
<!DOCTYPE svg PUBLIC "-//W3C//DTD SVG 20010904//EN"
 "http://www.w3.org/TR/2001/REC-SVG-20010904/DTD/svg10.dtd">
<svg version="1.0" xmlns="http://www.w3.org/2000/svg"
 width="1024.000000pt" height="1024.000000pt" viewBox="0 0 1024.000000 1024.000000"
 preserveAspectRatio="xMidYMid meet">

<g transform="translate(0.000000,1024.000000) scale(0.100000,-0.100000)"
fill="#000000" stroke="none">
<path d="M0 5120 l0 -5120 5120 0 5120 0 0 5120 0 5120 -5120 0 -5120 0 0
-5120z m5192 4368 c38 -58 498 -929 498 -943 0 -3 -90 -5 -201 -5 l-200 0 2
-52 c3 -108 3 -108 -38 -108 l-38 0 3 81 c3 62 1 80 -9 77 -9 -3 -13 -28 -13
-81 l0 -77 -48 0 -48 0 0 80 0 80 -210 0 c-115 0 -210 3 -210 6 0 14 483 964
490 964 4 0 14 -10 22 -22z m-2770 -203 c0 -36 1 -71 2 -77 1 -8 -14 -14 -36
-16 l-38 -3 0 75 c0 78 2 81 53 85 14 1 17 -9 19 -64z m5664 -43 c6 -4 16 -37
21 -74 l9 -68 -104 0 -105 0 7 53 c14 102 9 97 90 97 39 0 76 -4 82 -8z
m-5534 -147 c187 -43 365 -192 463 -387 60 -119 79 -212 72 -347 -14 -271
-167 -493 -421 -612 -292 -137 -655 -32 -845 244 -43 63 -95 177 -112 247 -19
78 -16 269 5 349 48 179 180 349 347 449 123 74 322 97 491 57z m-682 -125
c-1 -3 -12 -18 -25 -35 l-25 -30 -69 69 -69 68 32 29 31 28 63 -62 c34 -34 62
-64 62 -67z m1224 71 c3 -4 -24 -36 -60 -72 l-64 -63 -26 26 -27 26 58 66 58
65 28 -20 c16 -11 31 -23 33 -28z m5083 -26 c93 -32 144 -66 218 -147 60 -67
112 -164 141 -263 40 -139 -11 -348 -118 -482 -63 -81 -186 -157 -294 -184
-62 -16 -203 -6 -285 20 -122 39 -256 144 -312 246 -83 149 -98 367 -33 499
63 129 190 254 303 299 112 44 268 49 380 12z m-609 -90 c6 -5 -111 -155 -120
-155 -5 0 -36 20 -69 45 l-59 46 56 74 55 73 67 -40 c37 -22 68 -42 70 -43z
m1056 13 c31 -39 56 -75 56 -79 0 -9 -115 -89 -127 -89 -8 1 -108 131 -108
141 0 8 107 98 117 98 4 1 32 -31 62 -71z m-1234 -431 l0 -63 -35 4 c-32 4
-35 7 -35 36 0 17 3 41 6 53 5 19 14 24 57 32 4 0 7 -27 7 -62z m1295 -7 l0
-55 -37 -3 -38 -3 0 61 0 61 38 -3 37 -3 0 -55z m-7055 -80 l0 -50 -75 0 -75
0 0 34 c0 62 5 66 81 66 l69 0 0 -50z m1680 -5 l0 -45 -75 0 -75 0 0 45 0 45
75 0 75 0 0 -45z m4199 -272 l49 -67 -36 -26 c-21 -15 -46 -37 -56 -49 -11
-11 -22 -21 -26 -21 -16 0 -122 142 -113 151 12 12 116 77 126 78 4 1 29 -29
56 -66z m1131 31 c30 -21 56 -38 58 -39 3 -2 -89 -128 -108 -149 -7 -7 -130
69 -130 81 0 3 20 36 45 74 28 43 51 69 62 69 10 0 43 -16 73 -36z m-3175
-298 c204 -35 451 -113 574 -182 24 -13 51 -24 60 -24 22 0 243 -126 328 -186
157 -112 391 -333 377 -356 -4 -6 -3 -8 3 -5 6 4 29 -15 51 -42 23 -27 35 -48
27 -48 -8 0 -12 4 -9 8 2 4 0 10 -6 14 -5 3 -10 1 -10 -5 0 -6 -4 -9 -9 -5 -5
3 -12 1 -16 -5 -10 -16 -25 -12 -25 8 -1 10 -6 6 -14 -13 -15 -34 -16 -31 65
-152 25 -37 61 -95 79 -128 18 -33 50 -76 71 -95 50 -46 79 -116 79 -191 0
-32 -4 -59 -8 -59 -25 0 -192 154 -192 177 0 4 12 17 28 29 l27 23 -63 64
c-35 35 -69 75 -76 88 -6 13 -21 24 -31 25 -11 0 -27 3 -35 7 -49 21 -80 30
-123 34 -61 5 -70 -13 -37 -75 l24 -44 -32 -28 c-18 -15 -32 -33 -32 -40 0 -8
-9 -10 -28 -5 -25 5 -29 2 -41 -32 -10 -30 -96 -214 -109 -232 -3 -6 -100 41
-154 75 l-42 27 37 18 c37 19 57 45 57 73 0 28 -28 17 -49 -18 -37 -60 -74
-55 -87 11 -6 28 -2 37 26 63 31 29 32 33 26 80 -6 47 -5 50 18 56 44 11 49
26 26 87 -28 76 -55 107 -90 107 -63 0 -75 57 -23 112 l26 27 -24 21 c-13 11
-45 37 -71 57 -27 20 -48 43 -48 50 0 25 -26 2 -40 -35 l-13 -37 -13 31 c-19
45 -40 60 -53 37 -13 -23 -14 -8 -1 16 7 14 4 23 -12 37 -13 12 -18 13 -13 4
13 -22 15 -39 4 -46 -5 -3 -8 0 -7 8 2 7 -2 12 -8 11 -15 -3 -47 54 -34 62 5
3 10 -3 10 -14 0 -11 4 -22 9 -26 16 -9 3 36 -15 56 -23 25 -33 24 -44 -6
l-10 -25 -47 33 c-27 19 -74 44 -105 57 -85 33 -79 48 40 109 53 28 103 51
111 51 7 0 29 -9 48 -21 30 -19 37 -20 66 -8 35 14 127 71 127 79 0 9 -351
112 -445 131 -354 71 -700 46 -1065 -76 -74 -25 -145 -45 -158 -45 -59 0 22
-59 118 -86 89 -25 100 -31 100 -59 0 -34 -41 -63 -380 -266 -74 -45 -147 -90
-163 -101 -15 -10 -33 -16 -39 -12 -7 4 -8 3 -4 -4 3 -6 -3 -16 -14 -22 -11
-6 -20 -8 -20 -5 0 4 -7 -1 -16 -9 -8 -9 -21 -16 -27 -17 -40 -2 -77 -21 -77
-39 0 -4 14 -10 30 -14 24 -4 35 -15 50 -48 11 -24 20 -55 20 -69 0 -28 16
-46 59 -67 14 -7 18 -10 8 -7 -10 3 -15 1 -12 -5 3 -6 26 -10 51 -10 42 0 49
4 107 63 34 34 100 104 146 155 46 52 145 145 220 207 75 62 141 122 148 133
7 12 33 33 57 47 41 24 48 25 84 14 34 -10 49 -8 118 14 169 54 296 88 313 82
22 -7 221 -208 221 -223 0 -6 -18 -17 -40 -23 -40 -12 -40 -12 -34 -53 4 -23
20 -80 35 -129 43 -131 41 -135 -35 -78 -79 60 -143 86 -192 78 -74 -12 -104
-66 -104 -187 0 -51 -4 -80 -11 -80 -18 0 -112 104 -148 164 -18 31 -51 100
-73 153 -22 54 -42 100 -44 102 -8 9 -169 -82 -223 -125 -4 -3 18 -92 27 -108
2 -4 8 -3 11 3 5 7 15 3 30 -13 13 -14 20 -29 16 -35 -3 -6 -34 -30 -68 -53
-107 -72 -179 -130 -169 -137 5 -3 11 -43 13 -88 2 -45 7 -85 11 -88 4 -4 40
5 81 20 110 40 113 39 176 -88 60 -118 60 -134 5 -149 -16 -5 -90 -15 -164
-24 -74 -9 -140 -19 -147 -23 -7 -3 -63 -60 -124 -126 l-112 -119 6 -91 c14
-200 61 -395 154 -634 28 -69 23 -84 -27 -79 -20 2 -32 17 -61 75 -54 110
-152 382 -194 541 l-38 142 -169 0 c-172 0 -191 -3 -232 -41 -16 -16 -36 -19
-117 -19 -117 0 -125 -5 -128 -85 -1 -31 -7 -69 -13 -83 -14 -35 -7 -255 8
-271 2 -3 39 -5 82 -6 42 -1 97 -9 122 -18 131 -45 199 -60 277 -61 l82 -1 11
-48 c5 -26 10 -56 10 -66 0 -10 6 -24 14 -30 7 -6 11 -22 9 -35 -6 -30 24
-136 38 -136 6 0 7 -5 4 -10 -3 -6 3 -22 14 -36 12 -15 21 -32 21 -39 0 -17
40 -50 80 -65 19 -7 62 -25 95 -40 33 -15 78 -34 100 -41 56 -19 125 -92 162
-171 31 -64 35 -68 73 -74 72 -12 60 -28 -16 -21 -62 6 -72 10 -96 39 -16 18
-28 36 -28 42 0 21 -70 75 -111 86 -51 13 -336 154 -361 179 -9 9 -37 58 -63
109 -49 99 -61 110 -145 127 -19 4 -100 39 -180 77 -80 39 -187 90 -238 114
-68 33 -98 53 -112 76 -20 33 -37 101 -115 457 -52 240 -71 277 -61 121 24
-392 83 -655 201 -890 51 -101 148 -244 193 -284 12 -11 22 -24 22 -29 0 -6
-3 -7 -6 -4 -4 3 -15 2 -25 -4 -15 -8 -17 -6 -13 6 4 9 3 15 -2 14 -15 -4 -64
20 -64 31 0 5 -9 10 -20 10 -14 0 -18 5 -14 18 5 14 4 14 -4 3 -8 -12 -14 -12
-25 -3 -7 7 -17 9 -20 5 -4 -3 -7 1 -7 10 0 9 -5 19 -12 23 -7 5 -8 3 -3 -7 5
-8 -4 -1 -18 14 -15 15 -27 35 -27 43 0 7 -5 14 -11 14 -5 0 -7 -5 -3 -12 4
-6 3 -8 -3 -5 -6 4 -18 27 -27 52 -10 25 -23 45 -29 45 -7 0 -21 20 -32 45
-11 25 -26 45 -33 45 -9 0 -12 7 -10 18 3 10 -1 23 -8 30 -8 7 -16 25 -20 40
-3 15 -8 34 -12 42 -7 19 -9 29 -11 60 -2 25 -2 25 -16 -5 l-14 -30 3 47 c2
30 0 45 -7 41 -12 -7 -3 403 11 467 6 25 15 79 22 120 44 283 143 522 331 804
171 257 394 489 632 660 123 88 346 214 417 237 14 4 69 23 123 43 152 55 368
104 532 120 79 8 402 -4 480 -18z m-3623 -23 l26 -28 -53 -58 -54 -59 -36 34
-37 33 56 53 c30 28 59 52 64 52 4 0 20 -12 34 -27z m6273 -20 c-13 -100 -6
-93 -94 -93 l-78 0 -7 46 c-11 86 -14 83 62 87 37 2 80 4 95 5 28 2 28 2 22
-45z m-5070 -13 l49 -50 -24 -25 c-13 -14 -28 -25 -35 -25 -6 0 -33 22 -59 49
-49 49 -49 50 -32 75 24 37 46 32 101 -24z m-615 -259 c0 -69 0 -69 -30 -76
-16 -4 -34 -4 -40 0 -5 3 -10 37 -10 76 l0 69 40 0 40 0 0 -69z m3474 -329 c3
-5 -1 -9 -9 -9 -8 0 -12 4 -9 9 3 4 7 8 9 8 2 0 6 -4 9 -8z m1040 -260 c3 -5
-1 -9 -9 -9 -8 0 -12 4 -9 9 3 4 7 8 9 8 2 0 6 -4 9 -8z m-836 -27 c44 -37 46
-69 8 -101 -45 -38 -73 -46 -111 -34 -21 7 -37 21 -45 40 -37 90 71 160 148
95z m883 -42 c13 -16 12 -17 -3 -4 -10 7 -18 15 -18 17 0 8 8 3 21 -13z m2013
-18 c123 -32 231 -148 239 -257 2 -25 6 -28 57 -34 73 -8 129 -34 173 -78 129
-129 105 -315 -52 -400 l-52 -28 -432 0 c-382 -1 -437 1 -472 16 -49 21 -71
40 -102 90 -27 42 -40 122 -29 179 14 76 92 156 189 192 43 16 47 21 47 51 0
18 16 65 38 105 76 149 222 209 396 164z m-7614 -35 c158 -30 283 -146 330
-307 11 -36 17 -42 49 -48 42 -8 107 -44 138 -77 12 -12 34 -49 49 -82 33 -73
30 -129 -12 -189 -56 -78 -65 -82 -248 -85 l-163 -3 -9 -98 c-9 -95 -8 -99 13
-115 24 -18 37 -21 28 -6 -9 14 2 12 29 -5 18 -12 30 -13 49 -6 20 8 28 7 34
-4 6 -9 17 -12 32 -8 17 4 19 8 9 14 -11 7 -10 9 1 9 8 0 22 -7 32 -16 11 -10
19 -12 24 -5 3 6 1 11 -5 11 -7 0 -25 9 -41 21 -18 12 -29 16 -29 8 0 -9 -3
-9 -14 0 -11 9 -15 9 -20 -1 -5 -10 -7 -10 -12 0 -3 6 -10 10 -15 6 -5 -3 -9
0 -9 5 0 6 5 11 10 11 6 0 10 8 10 19 0 15 8 19 41 19 23 1 44 3 47 6 3 3 -9
6 -26 6 -17 0 -34 5 -38 11 -4 7 -10 7 -16 1 -12 -12 -41 -4 -33 8 3 4 -1 8
-8 7 -32 -1 -48 4 -42 13 4 6 11 8 16 5 5 -4 9 -1 9 5 0 19 -45 6 -52 -15 -5
-16 -6 -14 -7 10 l-1 30 120 -3 c84 -2 120 -7 120 -15 0 -8 3 -8 9 1 4 8 17
12 28 10 19 -3 19 -6 7 -64 -18 -91 -56 -161 -128 -240 -130 -142 -324 -203
-518 -163 -129 27 -268 121 -341 232 -37 57 -82 162 -92 217 l-6 35 166 0
c160 0 166 1 163 20 -3 19 -13 20 -182 25 l-178 5 -33 38 c-19 21 -41 54 -49
72 -21 44 -20 121 3 170 26 57 101 121 162 136 27 7 49 18 49 23 0 33 25 91
53 123 34 38 97 72 135 73 12 0 22 6 22 14 0 20 85 95 128 113 73 32 133 38
212 23z m5634 -36 c3 -8 2 -12 -4 -9 -6 3 -10 10 -10 16 0 14 7 11 14 -7z
m-139 -459 l100 -4 37 -43 c25 -28 36 -49 32 -60 -3 -10 -1 -18 5 -18 6 0 8
-7 5 -15 -4 -8 -1 -15 5 -15 6 0 11 -5 11 -12 0 -6 -10 -3 -22 8 -12 10 -18
13 -13 5 4 -8 2 -17 -6 -23 -11 -8 -10 -9 3 -4 10 3 20 0 24 -6 4 -7 3 -8 -4
-4 -7 4 -12 3 -12 -3 0 -6 -7 -8 -15 -5 -11 5 -15 -1 -15 -17 0 -20 2 -21 11
-9 9 12 10 11 6 -7 -3 -13 2 -73 10 -135 21 -157 12 -398 -19 -528 -22 -91
-24 -94 -40 -78 -23 23 -102 24 -206 2 -42 -9 -98 -17 -124 -18 -27 0 -44 -5
-41 -11 3 -5 -47 42 -112 106 l-117 116 -9 89 c-5 49 -11 153 -12 230 -2 123
0 144 16 161 22 25 22 40 -3 88 -11 22 -20 59 -20 82 0 24 -4 43 -9 43 -6 0
-9 9 -8 20 1 16 9 20 37 21 19 0 69 13 110 29 71 27 82 28 185 23 61 -2 155
-6 210 -8z m220 -135 c10 -11 16 -20 13 -20 -3 0 -13 9 -23 20 -10 11 -16 20
-13 20 3 0 13 -9 23 -20z m1925 -175 c6 -4 10 -48 10 -107 0 -91 2 -100 20
-105 19 -5 19 -6 0 -42 -10 -20 -41 -73 -68 -118 l-49 -82 -72 113 c-39 62
-71 116 -71 120 0 3 7 6 15 6 12 0 15 20 15 116 l0 117 95 -6 c52 -3 99 -8
105 -12z m-7445 -144 c-6 -5 -25 10 -25 20 0 5 6 4 14 -3 8 -7 12 -15 11 -17z
m115 -71 c0 -5 -2 -10 -4 -10 -3 0 -8 5 -11 10 -3 6 -1 10 4 10 6 0 11 -4 11
-10z m2057 -112 c-3 -7 -5 -2 -5 12 0 14 2 19 5 13 2 -7 2 -19 0 -25z m-982
-547 c33 -16 77 -46 98 -67 75 -76 167 -262 167 -339 0 -29 7 -39 43 -64 91
-63 121 -103 330 -441 123 -200 218 -297 343 -350 25 -11 125 -36 223 -55 211
-42 304 -70 431 -133 80 -39 109 -60 185 -136 136 -137 184 -246 206 -466 13
-138 3 -333 -20 -361 -9 -12 -37 -25 -61 -30 -75 -14 -691 -11 -720 4 -23 12
-25 19 -30 107 -4 76 -9 101 -27 125 -35 49 -92 98 -208 180 -150 106 -259
198 -396 334 -299 300 -456 546 -599 941 -51 139 -119 283 -215 455 -98 175
-81 265 60 322 43 18 120 7 190 -26z m4962 18 c24 -11 59 -39 79 -62 54 -63
48 -90 -75 -353 -63 -134 -127 -291 -167 -409 -140 -411 -292 -655 -583 -937
-97 -94 -195 -177 -287 -242 -292 -209 -317 -237 -330 -374 -6 -67 -9 -73 -33
-80 -14 -4 -198 -7 -408 -7 -354 0 -384 1 -400 18 -27 26 -33 382 -8 477 46
178 171 340 360 466 72 48 130 76 228 109 69 23 119 33 355 69 118 19 170 45
253 126 82 81 255 339 338 507 56 111 93 159 144 190 7 4 19 35 25 68 22 108
127 301 201 368 90 81 219 109 308 66z m-2872 -24 c17 -7 42 -17 58 -20 31 -8
34 -22 11 -51 -8 -10 -13 -14 -10 -8 3 7 -1 15 -10 18 -9 3 -12 2 -9 -5 11
-16 -28 -6 -42 11 -6 8 -9 19 -6 25 3 5 0 4 -8 -3 -12 -11 -12 -14 1 -23 12
-9 10 -10 -8 -6 -17 4 -22 1 -20 -11 2 -9 -11 -24 -31 -35 -28 -17 -60 -22
-200 -27 -91 -4 -168 -6 -170 -4 -7 6 31 84 60 124 l27 37 164 -4 c105 -3 174
-9 193 -18z m30 -85 c3 -6 -4 -10 -17 -10 -18 0 -20 2 -8 10 19 12 18 12 25 0z
m-3551 -307 c88 -85 156 -230 156 -333 0 -101 -97 -229 -186 -246 -104 -19
-222 114 -232 262 -4 62 -1 79 22 129 50 110 145 224 186 225 9 0 33 -17 54
-37z m4007 -26 c246 -117 415 -170 654 -203 66 -9 125 -21 130 -27 7 -7 4 -8
-7 -4 -11 4 -17 2 -15 -6 3 -17 -225 -13 -328 6 l-80 15 -32 -37 c-68 -80
-363 -252 -416 -243 -10 2 -16 -2 -15 -9 2 -7 -6 -14 -17 -16 -16 -3 -17 -2
-5 6 9 7 10 11 3 11 -6 0 -15 -5 -19 -11 -4 -7 -27 -10 -63 -7 -31 3 -48 3
-38 1 9 -3 17 -9 17 -14 0 -11 -42 -1 -50 11 -3 5 -25 4 -50 0 -25 -5 -67 -9
-93 -10 -41 0 -50 -3 -54 -20 -5 -18 -8 -19 -22 -7 -9 8 -23 14 -31 14 -8 1
-24 4 -34 9 -15 6 -17 4 -11 -7 8 -12 6 -12 -8 0 -9 7 -17 19 -17 25 0 6 4 5
9 -3 5 -7 11 -9 14 -5 3 5 -6 17 -18 27 -15 10 -26 13 -30 7 -3 -5 1 -10 10
-10 9 0 13 -5 9 -11 -8 -14 -96 70 -134 128 -15 23 -30 40 -34 36 -16 -16 -2
30 49 161 31 77 59 148 64 156 5 10 44 21 112 32 57 9 167 28 244 42 77 14
152 23 166 21 15 -2 78 -28 140 -58z m3625 -172 c16 -27 81 -104 145 -172 198
-206 267 -337 257 -486 -3 -40 -7 -79 -9 -87 -3 -11 7 -16 40 -18 43 -3 43 -4
37 -35 -3 -18 -22 -66 -43 -107 -66 -136 -198 -240 -353 -278 l-70 -17 28 -30
c16 -17 36 -35 47 -40 17 -10 14 -16 -30 -75 -26 -36 -54 -78 -62 -93 l-14
-29 -20 36 c-10 20 -35 58 -54 85 -19 26 -35 56 -35 65 0 8 18 28 40 42 22 15
40 30 40 35 0 4 -17 11 -37 14 -168 28 -303 132 -387 296 -52 102 -56 124 -23
133 21 5 23 11 23 76 1 60 6 81 37 143 20 40 77 121 127 182 54 66 107 142
131 190 37 75 99 266 99 305 0 53 14 46 35 -17 13 -37 36 -90 51 -118z m-7991
-225 c101 -39 175 -134 175 -226 0 -15 -9 -47 -21 -71 -17 -35 -32 -48 -87
-75 -118 -59 -234 -38 -322 58 -23 25 -49 64 -59 87 -26 61 -62 210 -53 219 4
4 32 14 62 23 79 22 227 15 305 -15z m916 14 c30 -9 57 -18 60 -20 10 -6 -30
-164 -55 -219 -45 -98 -124 -150 -244 -161 -62 -5 -70 -4 -113 24 -89 58 -114
163 -56 248 81 120 252 174 408 128z m-68 -489 c43 -7 90 -21 103 -30 23 -15
25 -21 19 -58 -19 -110 -80 -219 -150 -267 -85 -58 -225 -52 -291 14 -39 39
-69 131 -59 182 12 69 97 138 194 160 74 16 92 16 184 -1z m-852 -5 c108 -20
186 -109 175 -198 -9 -69 -30 -98 -102 -138 -128 -71 -258 -55 -345 45 -36 41
-119 192 -119 217 0 17 64 53 120 68 65 17 195 20 271 6z m7090 -1065 c24 -19
66 -59 93 -90 113 -132 156 -223 157 -339 1 -78 -16 -160 -31 -151 -6 4 -7 -1
-3 -11 4 -12 3 -15 -5 -10 -8 4 -10 2 -6 -7 3 -8 -2 -21 -10 -30 -9 -9 -16
-20 -16 -25 0 -5 -9 -17 -20 -27 -17 -15 -22 -16 -36 -4 -16 13 -16 12 -5 -8
11 -21 8 -27 -11 -24 -5 0 -8 -5 -8 -13 0 -7 -17 -26 -37 -42 -20 -15 -33 -22
-29 -16 4 7 2 12 -3 12 -6 0 -11 -7 -11 -16 0 -11 -5 -14 -16 -10 -12 4 -15 2
-10 -9 8 -22 -106 -22 -124 1 -8 8 -39 33 -70 55 -138 97 -202 257 -165 415
29 126 146 295 255 367 36 25 62 21 111 -18z m-5464 -101 c280 -58 505 -288
568 -582 14 -62 15 -88 7 -105 -6 -12 -17 -65 -26 -118 -25 -157 -111 -357
-177 -414 -18 -15 -20 -16 -10 -2 12 15 12 17 -3 11 -9 -3 -16 -2 -16 3 0 5
-9 9 -20 9 -11 0 -20 -7 -20 -14 0 -8 -6 -12 -15 -9 -8 4 -17 2 -20 -3 -4 -6
-13 -10 -20 -10 -8 0 -38 -11 -67 -24 -70 -31 -139 -54 -188 -62 -22 -4 -40
-11 -40 -16 0 -5 -12 -9 -27 -8 -16 1 -30 1 -33 0 -20 -7 -39 -11 -157 -31
-40 -7 -73 -15 -73 -19 0 -12 -60 -18 -67 -7 -3 5 -13 7 -22 4 -10 -2 -26 2
-36 9 -10 8 -24 14 -29 14 -6 0 -4 -5 4 -10 9 -6 10 -10 3 -10 -6 0 -14 4 -17
9 -4 5 -25 19 -49 30 -72 35 -205 164 -211 205 -1 8 -18 32 -38 54 -25 28 -45
67 -64 124 -25 76 -28 97 -28 238 -1 143 2 161 26 235 84 247 299 449 532 500
85 19 242 18 333 -1z m4993 -469 c66 -23 87 -40 108 -87 11 -24 51 -78 90
-121 81 -92 98 -134 83 -212 -15 -79 -51 -145 -79 -145 -5 0 -16 -7 -23 -17
-27 -32 -101 -56 -174 -56 -105 0 -149 16 -217 81 -68 65 -109 141 -138 257
-21 84 -41 240 -34 260 8 19 63 46 112 55 66 12 219 4 272 -15z m1138 2 c74
-22 80 -32 70 -123 -13 -111 -52 -281 -78 -336 -28 -61 -92 -122 -160 -156
-48 -24 -67 -27 -150 -27 -108 0 -147 14 -206 74 -54 54 -84 124 -84 198 l0
62 79 79 c56 55 89 99 115 149 23 47 43 74 58 79 78 25 273 25 356 1z m-3554
-269 c122 -32 184 -82 237 -190 21 -44 22 -45 94 -57 118 -20 209 -89 256
-195 49 -111 31 -214 -54 -301 -71 -73 -129 -90 -272 -80 l-102 7 -7 -56 c-11
-86 -61 -135 -152 -151 -115 -19 -224 75 -224 193 0 19 -4 22 -20 17 -11 -3
-73 -7 -137 -7 -133 -1 -174 11 -232 65 -108 103 -92 285 33 379 27 20 68 42
91 48 40 11 43 15 48 55 20 146 119 259 250 285 69 13 107 11 191 -12z m-2244
-488 c0 -5 -5 -10 -11 -10 -5 0 -7 5 -4 10 3 6 8 10 11 10 2 0 4 -4 4 -10z"/>
<path d="M6838 7063 c7 -3 16 -2 19 1 4 3 -2 6 -13 5 -11 0 -14 -3 -6 -6z"/>
<path d="M6772 7044 c-7 -8 -8 -14 -3 -14 10 0 25 19 20 25 -2 1 -10 -3 -17
-11z"/>
<path d="M6734 6835 c36 -19 47 -19 22 0 -11 8 -27 15 -35 15 -9 0 -3 -7 13
-15z"/>
<path d="M1783 5883 c-16 -6 -17 -43 -2 -43 5 0 7 5 4 10 -4 6 -1 17 5 25 13
16 12 16 -7 8z"/>
<path d="M6970 6333 c1 -13 25 -52 33 -52 4 -1 13 -1 20 -2 7 0 7 -3 -3 -7
-13 -6 -12 -10 6 -29 l21 -22 -3 22 c-1 12 -3 25 -3 28 -1 3 -14 20 -29 37
-28 31 -42 40 -42 25z"/>
<path d="M4693 4295 c0 -8 4 -12 9 -9 5 3 6 10 3 15 -9 13 -12 11 -12 -6z"/>
<path d="M9001 3252 c-6 -12 -11 -27 -11 -34 0 -7 7 0 15 16 9 16 13 31 11 33
-2 3 -9 -4 -15 -15z"/>
</g>
</svg>
