<?xml version="1.0" standalone="no"?>
<!DOCTYPE svg PUBLIC "-//W3C//DTD SVG 20010904//EN"
 "http://www.w3.org/TR/2001/REC-SVG-20010904/DTD/svg10.dtd">
<svg version="1.0" xmlns="http://www.w3.org/2000/svg"
 width="1024.000000pt" height="1024.000000pt" viewBox="0 0 1024.000000 1024.000000"
 preserveAspectRatio="xMidYMid meet">

<g transform="translate(0.000000,1024.000000) scale(0.100000,-0.100000)"
fill="#000000" stroke="none">
<path d="M1540 10224 c-438 -52 -765 -211 -1050 -510 -240 -252 -381 -540
-458 -938 l-27 -141 0 -3490 0 -3490 22 -145 c58 -375 178 -655 388 -906 297
-354 626 -529 1110 -589 118 -14 455 -16 3620 -13 3251 3 3499 5 3620 21 204
27 330 64 513 148 248 114 492 330 656 579 175 267 251 503 291 902 22 219 22
6854 1 7018 -74 550 -274 913 -677 1228 -200 156 -461 264 -773 319 -79 14
-222 17 -1059 20 -779 3 -968 1 -965 -9 5 -14 41 -17 75 -6 15 5 25 1 35 -13
11 -17 24 -20 73 -20 33 0 65 -5 71 -10 7 -5 18 -8 25 -7 8 2 13 -4 11 -13 -2
-12 5 -16 23 -16 26 0 33 11 15 22 -6 4 -8 11 -4 16 6 11 44 -21 38 -32 -2 -3
9 -4 24 -2 24 3 25 2 7 -7 -15 -8 -8 -9 32 -7 38 3 53 0 57 -10 3 -8 14 -13
23 -12 38 3 83 -1 83 -9 0 -8 -28 -9 -204 -11 -87 -1 -96 -9 -20 -18 27 -2 57
-9 66 -14 10 -5 18 -6 18 -1 0 15 68 7 88 -11 10 -9 29 -17 43 -17 21 1 22 2
6 11 -9 5 -22 7 -27 4 -6 -3 -10 -1 -10 4 0 14 3 14 85 -5 107 -26 102 -23 85
-35 -13 -9 -13 -10 0 -6 8 2 14 11 12 21 -4 21 7 20 38 -1 14 -10 29 -18 35
-18 11 -1 43 -15 114 -49 29 -13 64 -21 103 -21 32 0 62 -5 66 -11 6 -10 27
-16 87 -26 11 -2 24 -12 29 -23 5 -13 10 -16 13 -7 5 14 33 17 33 3 0 -5 94
-10 208 -10 191 -2 354 -11 457 -26 22 -4 48 -6 58 -6 9 0 17 -4 17 -8 0 -12
64 -27 118 -30 13 -1 21 -5 18 -10 -3 -5 6 -12 20 -15 15 -4 25 -9 23 -11 -3
-2 -36 5 -74 16 -185 51 -231 53 -1120 39 -541 -8 -1660 -11 -3460 -9 -2740 3
-2699 3 -2848 -36 -32 -8 -63 -13 -68 -9 -5 3 -9 1 -9 -5 0 -5 -13 -12 -30
-16 -16 -4 -46 -15 -67 -25 -21 -10 -42 -16 -47 -13 -12 8 23 33 45 33 10 0
21 5 24 10 3 6 17 10 31 10 13 0 24 5 24 10 0 6 8 10 18 10 10 0 36 8 58 19
83 39 303 67 554 70 79 1 139 6 147 13 10 8 13 7 13 -2 0 -7 9 -2 21 11 13 16
29 23 45 21 13 -2 24 1 24 7 0 6 10 11 23 10 21 0 21 -1 2 -10 l-20 -9 20 3
c12 2 19 9 17 19 -3 19 32 30 47 15 7 -7 12 -6 16 6 4 9 13 13 21 10 8 -3 14
1 14 11 0 9 8 16 19 16 11 0 23 5 26 10 4 6 11 8 16 5 5 -4 12 1 15 9 3 9 17
16 30 16 13 0 23 5 21 12 -2 12 3 13 51 16 13 1 20 7 17 12 -3 6 1 10 9 10 9
0 16 -5 16 -11 0 -6 5 -7 13 -2 16 10 30 12 100 15 73 3 75 18 2 19 -30 1 -59
3 -65 4 -5 1 -19 3 -30 4 -11 0 -20 7 -20 15 0 10 7 12 22 8 16 -4 20 -1 16 9
-4 11 4 13 38 10 41 -3 61 11 32 22 -7 3 1 6 17 7 17 1 35 3 40 5 6 1 18 3 28
3 11 1 15 7 11 14 -5 8 -2 9 9 5 10 -3 17 -3 17 2 0 5 17 8 38 7 28 -1 36 3
34 14 -2 11 2 10 12 -3 14 -18 15 -18 26 2 l11 21 -628 -1 c-464 -1 -658 -5
-743 -15z m-366 -539 c-7 -17 -20 -20 -29 -6 -3 5 3 12 12 14 10 3 19 5 20 6
1 0 0 -6 -3 -14z m-44 -26 c0 -5 -4 -7 -10 -4 -5 3 -10 1 -10 -6 0 -7 -3 -10
-6 -6 -8 7 4 27 17 27 5 0 9 -5 9 -11z m7236 -114 c66 -39 256 -290 331 -440
48 -95 56 -101 140 -120 231 -50 446 -117 483 -152 13 -13 13 -14 0 -11 -8 2
-17 6 -20 10 -3 4 -6 -11 -7 -33 -3 -61 -91 -193 -266 -397 l-90 -105 27 -181
c15 -99 33 -230 39 -291 12 -109 12 -110 39 -113 43 -5 51 29 45 183 -3 72 -9
140 -13 153 -3 12 -2 22 3 22 9 0 35 -150 49 -285 8 -76 -9 -140 -42 -161 -23
-15 -30 -15 -96 1 -92 22 -238 81 -457 184 -96 45 -186 84 -200 87 -20 4 -77
-18 -216 -84 -375 -178 -480 -211 -557 -179 l-37 16 6 -32 c3 -18 10 -40 15
-51 7 -12 7 -16 0 -12 -6 3 -23 43 -38 89 l-27 82 17 190 c10 105 20 209 23
231 5 40 3 44 -61 114 -107 117 -235 281 -263 337 -45 92 -19 210 55 250 58
32 275 84 509 123 43 7 78 18 87 29 9 9 54 82 102 162 133 223 245 366 312
395 41 19 61 16 108 -11z m-6509 -81 c48 -23 60 -48 62 -128 1 -42 8 -78 17
-90 14 -20 14 -20 14 7 0 15 5 27 11 27 5 0 8 -3 6 -7 -3 -5 -1 -19 4 -32 7
-19 12 -21 23 -12 11 10 16 8 20 -7 6 -18 98 -72 123 -72 6 0 13 -7 17 -15 3
-8 14 -15 24 -15 10 0 22 -4 28 -9 5 -5 26 -14 48 -21 32 -10 40 -10 47 1 6 9
12 10 17 4 4 -6 20 -17 35 -25 23 -11 30 -12 36 -1 6 10 12 9 25 -4 9 -9 14
-20 11 -25 -3 -4 3 -7 12 -6 9 0 23 -10 30 -24 7 -14 13 -19 13 -11 0 12 3 11
18 -1 9 -9 39 -19 67 -23 27 -3 51 -8 53 -9 1 -2 -39 -27 -90 -56 -194 -109
-198 -113 -193 -140 2 -14 7 -158 12 -320 5 -226 9 -281 15 -235 5 33 9 71 8
84 0 30 13 20 15 -12 1 -12 8 -22 16 -22 15 0 58 -70 59 -97 0 -9 5 -18 11
-20 6 -2 19 -35 30 -73 10 -38 26 -73 34 -78 8 -4 27 -19 42 -33 64 -60 103 6
127 214 2 12 6 25 10 30 5 4 6 -103 4 -238 -3 -219 -6 -249 -23 -285 -22 -43
-120 -119 -143 -110 -7 2 -10 1 -7 -4 9 -16 -9 -20 -23 -5 -10 11 -10 14 0 14
15 1 92 69 85 76 -2 2 -15 -4 -28 -14 -13 -10 -60 -40 -104 -67 -44 -27 -181
-115 -305 -195 -124 -81 -240 -155 -258 -164 -33 -17 -69 -15 -58 2 3 5 -20
22 -52 38 -78 38 -202 123 -202 137 0 6 100 -43 110 -53 3 -3 14 -10 25 -16
11 -6 46 -25 77 -43 l57 -32 3 168 3 168 -34 34 c-19 18 -101 77 -181 131 -80
54 -154 110 -164 125 l-18 27 -21 -20 c-12 -11 -84 -55 -159 -97 -76 -42 -138
-80 -138 -83 0 -3 12 -19 27 -34 15 -15 22 -28 15 -28 -6 0 -14 5 -17 10 -10
16 -25 12 -19 -5 10 -24 -15 -17 -46 13 -19 19 -31 44 -35 73 -4 24 -5 314 -3
644 3 549 4 603 21 632 9 18 27 39 40 48 69 49 600 392 637 411 32 17 35 17
77 -2z m230 -82 c43 -27 98 -61 123 -77 25 -16 54 -35 65 -41 11 -6 59 -34
108 -63 48 -28 126 -74 175 -101 90 -53 126 -85 115 -103 -4 -6 -10 -4 -17 5
-7 9 -104 71 -216 138 -245 147 -406 246 -439 272 -49 37 8 18 86 -30z m2883
-75 c745 -1 1411 0 1480 3 l125 5 15 -30 c20 -40 28 -656 9 -692 -9 -17 -9
-26 0 -37 14 -17 15 -1179 1 -1374 -7 -103 -13 -133 -38 -185 -55 -119 -102
-151 -192 -135 -62 11 -66 12 -81 25 -8 5 -40 18 -71 28 -32 10 -55 22 -52 26
3 5 2 9 -3 10 -43 4 -53 8 -67 21 -8 9 -29 15 -46 14 -18 -1 -30 3 -30 10 0
17 -32 27 -40 13 -6 -8 -13 -8 -28 0 -11 6 -27 11 -34 11 -7 0 3 -8 22 -17
197 -92 359 -186 480 -276 263 -196 490 -469 673 -809 81 -150 174 -414 198
-563 16 -103 7 -112 -19 -19 -122 432 -220 632 -451 929 -128 164 -256 288
-404 389 -70 48 -125 92 -121 97 3 5 -3 6 -12 2 -10 -4 -15 -2 -11 3 3 6 -4
11 -16 11 -18 2 -11 -8 32 -48 29 -27 57 -49 62 -49 5 0 5 -8 2 -17 -5 -12 -2
-15 9 -11 9 4 15 0 15 -8 0 -23 -11 -17 -63 34 -27 26 -37 34 -24 18 25 -30
12 -27 -25 4 -53 46 -282 169 -363 195 -29 10 -52 21 -52 25 0 5 -9 6 -20 3
-12 -3 -22 1 -26 11 -4 11 -14 14 -33 10 -17 -4 -22 -3 -13 4 16 11 -64 36
-115 36 -18 0 -29 4 -26 10 4 5 -1 7 -12 2 -21 -8 -92 4 -77 13 16 10 -125 16
-378 16 -186 0 -256 -4 -335 -18 -150 -28 -298 -67 -316 -83 -9 -8 -53 -30
-98 -49 -117 -50 -348 -176 -436 -239 -16 -12 -43 -30 -60 -40 l-30 -19 20 23
20 22 -37 -22 c-21 -12 -35 -26 -32 -31 3 -5 2 -9 -3 -8 -15 4 -43 -13 -43
-26 0 -7 -21 -29 -47 -48 -111 -82 -292 -291 -375 -432 -203 -347 -298 -688
-298 -1073 0 -196 19 -327 74 -518 110 -383 261 -626 549 -886 336 -303 663
-465 1097 -544 121 -22 476 -25 595 -5 133 22 295 60 390 93 560 189 1033 632
1243 1163 83 209 119 372 131 595 15 273 -12 490 -90 716 -51 148 -56 169 -29
121 59 -107 150 -408 150 -498 0 -28 4 -37 14 -33 18 7 26 -64 26 -240 0 -281
-50 -484 -190 -766 -132 -269 -230 -408 -425 -609 -246 -253 -469 -393 -813
-512 -379 -130 -878 -144 -1256 -34 -365 106 -716 309 -912 528 -6 6 -43 41
-83 76 -39 36 -73 73 -77 83 -3 10 -10 17 -17 15 -6 -1 -16 8 -22 21 -5 12
-13 22 -17 22 -5 0 -8 5 -8 11 0 6 -12 26 -27 44 -16 18 -44 53 -63 78 -19 26
-41 46 -47 47 -7 0 -13 9 -13 21 0 11 -4 17 -10 14 -5 -3 -10 -2 -10 4 0 13
-52 91 -61 91 -4 0 -10 11 -13 25 -4 16 -11 23 -18 19 -8 -5 -9 -2 -5 10 4 10
3 15 -3 11 -6 -3 -10 0 -10 7 -1 16 -39 97 -40 82 0 -19 77 -202 111 -262 18
-31 68 -109 111 -173 43 -64 78 -122 78 -129 0 -6 6 -8 13 -4 6 4 9 3 4 -1 -4
-5 3 -20 15 -34 19 -21 17 -20 -10 3 -17 17 -32 35 -32 40 0 6 -8 16 -18 23
-48 30 -207 293 -281 464 -111 260 -169 545 -172 854 -1 66 -4 111 -6 100 -3
-11 -10 -26 -17 -34 -6 -8 -11 -26 -12 -40 0 -15 -3 -31 -6 -36 -10 -18 -21
-70 -19 -90 1 -13 -10 -29 -28 -43 -25 -18 -51 -23 -163 -32 -73 -5 -207 -10
-298 -11 -306 -1 -266 -15 65 -22 176 -4 334 -9 350 -13 l31 -6 1 -111 c1
-133 13 -288 23 -302 4 -5 10 -32 13 -60 4 -27 9 -61 13 -75 3 -14 8 -37 11
-53 3 -15 9 -27 13 -27 4 0 10 -17 13 -37 6 -40 12 -72 22 -113 3 -14 8 -36
11 -50 3 -13 10 -28 16 -31 6 -4 8 -11 4 -17 -3 -6 2 -26 13 -45 10 -18 22
-48 26 -65 3 -18 11 -34 16 -37 5 -4 19 -27 30 -53 50 -110 83 -177 92 -183 5
-4 9 -21 10 -40 2 -28 -3 -36 -37 -55 -79 -45 -92 -45 -1234 -42 -1045 3
-1084 4 -1097 22 -11 14 -14 77 -14 290 -1 149 -3 319 -5 376 -3 58 -8 184
-11 280 -3 96 -8 207 -10 245 -2 39 -6 147 -10 240 -4 94 -8 190 -10 215 -13
161 -25 1534 -14 1552 4 5 44 13 90 18 126 12 2123 12 2208 0 88 -12 175 -54
223 -108 47 -52 96 -155 102 -216 3 -26 7 -50 9 -52 2 -3 31 28 63 68 94 118
312 335 404 402 47 35 92 71 100 82 13 17 13 18 0 8 -43 -32 -138 -17 -214 35
-55 38 -119 119 -143 182 -23 59 -29 403 -29 1449 1 645 4 810 14 828 12 20
18 22 55 17 23 -4 652 -7 1397 -8z m-2253 -1079 c-3 -8 -6 -5 -6 6 -1 11 2 17
5 13 3 -3 4 -12 1 -19z m-2320 -10 c-3 -8 -6 -5 -6 6 -1 11 2 17 5 13 3 -3 4
-12 1 -19z m9428 -58 c-4 -74 -15 -74 -15 -1 0 34 4 60 9 57 5 -3 8 -29 6 -56z
m-9422 -162 c2 -106 3 -917 1 -1803 -1 -885 -3 -2127 -3 -2758 -1 -958 -3
-1146 -14 -1135 -8 7 -14 28 -14 48 0 19 -3 280 -7 580 -3 300 -9 761 -11
1025 -4 327 -9 482 -17 486 -6 4 -8 11 -4 17 3 6 1 12 -5 14 -8 3 -6 9 5 20 9
9 16 29 16 45 0 19 -3 24 -9 14 -5 -7 -11 -9 -13 -5 -10 18 -12 729 -3 744 3
5 2 26 -4 45 -5 19 -6 35 -2 35 4 0 8 14 8 30 0 17 -4 30 -9 30 -5 0 -6 5 -2
11 12 19 4 173 -9 182 -9 7 -9 10 0 14 7 2 13 9 13 14 0 6 -5 7 -10 4 -6 -3
-10 -2 -10 3 0 6 8 13 17 16 14 6 15 9 4 15 -9 6 -12 23 -9 49 2 22 -1 40 -5
39 -13 -3 -15 64 -3 84 6 10 6 32 -1 60 -12 59 -4 355 17 554 35 339 39 532
10 527 -10 -1 -9 3 5 14 11 8 19 19 18 24 -4 14 -3 130 1 183 2 26 0 50 -5 53
-5 3 -5 12 0 22 7 13 21 433 26 777 0 28 4 56 8 63 5 7 5 21 2 32 -4 11 -2 20
4 20 6 0 11 -75 14 -192z m8674 90 c-3 -7 -5 -2 -5 12 0 14 2 19 5 13 2 -7 2
-19 0 -25z m751 -125 c15 -269 4 -4331 -14 -4993 -1 -52 -3 -205 -5 -340 -1
-135 -5 -225 -9 -200 -3 25 -7 459 -8 964 -2 658 -6 923 -14 933 -16 20 -21 8
-8 -17 9 -17 9 -21 0 -15 -9 5 -10 2 -6 -13 4 -12 1 -26 -9 -36 -15 -14 -12
-20 7 -17 10 1 -2 -31 -20 -51 -8 -10 -11 -18 -6 -18 5 0 9 -18 9 -40 1 -22
-3 -40 -8 -40 -5 0 -6 -7 -3 -16 3 -8 2 -12 -4 -9 -13 8 -13 -1 -1 -24 7 -12
5 -31 -4 -57 -14 -39 -16 -36 -20 20 -1 16 -9 34 -18 41 -14 10 -15 177 -16
1650 -2 1533 2 1841 19 1830 3 -2 4 10 2 27 -3 21 -1 29 7 24 6 -4 11 -2 11 3
0 6 5 11 12 11 6 0 9 -3 5 -6 -3 -4 0 -19 8 -35 8 -15 15 -40 15 -54 0 -14 7
-28 15 -31 8 -4 12 -11 8 -16 -9 -16 -6 -69 5 -80 10 -10 13 56 28 535 3 109
8 196 11 194 2 -3 7 -58 11 -124z m-8273 -541 c-3 -3 -11 0 -18 7 -9 10 -8 11
6 5 10 -3 15 -9 12 -12z m-1208 -29 c-3 -10 -5 -4 -5 12 0 17 2 24 5 18 2 -7
2 -21 0 -30z m-7 -451 c0 -7 -4 -10 -10 -7 -5 3 -10 16 -10 28 0 18 2 19 10 7
5 -8 10 -21 10 -28z m5367 12 c-3 -3 -12 -4 -19 -1 -8 3 -5 6 6 6 11 1 17 -2
13 -5z m-278 -60 c209 -30 364 -80 576 -184 241 -118 353 -195 523 -363 271
-266 486 -675 554 -1056 27 -154 29 -408 4 -566 -89 -551 -411 -1037 -911
-1372 -140 -94 -357 -187 -557 -238 -173 -44 -263 -55 -493 -60 -169 -4 -205
-2 -325 20 -74 14 -146 29 -160 35 -14 5 -43 12 -65 16 -115 17 -515 216 -625
311 -25 21 -74 62 -110 90 -106 84 -299 297 -284 313 3 3 11 -2 17 -11 43 -57
102 -117 110 -112 6 4 8 0 4 -11 -4 -9 -3 -15 2 -12 5 3 33 -19 62 -50 30 -31
83 -79 119 -107 36 -29 67 -55 68 -60 2 -4 8 -5 13 -2 8 5 97 -40 109 -55 8
-10 162 -94 195 -106 83 -31 191 -78 199 -85 6 -5 16 -9 24 -9 8 0 28 -6 45
-14 47 -21 170 -56 272 -77 79 -17 83 -18 30 -13 -96 8 -212 40 -392 108 -211
80 -348 145 -414 197 -28 23 -52 39 -54 37 -9 -9 140 -111 222 -152 99 -50
290 -123 421 -161 223 -66 556 -84 817 -45 171 25 223 39 457 126 44 16 251
124 258 134 3 4 48 36 100 70 52 35 97 66 100 69 3 3 43 38 90 78 91 77 105
91 192 195 123 145 286 427 351 606 71 193 107 401 107 614 0 140 -6 188 -44
358 -24 106 -101 332 -144 422 -46 95 -149 263 -200 326 -19 23 -30 42 -26 42
5 0 4 4 -2 8 -6 4 -15 15 -20 24 -35 64 -256 286 -310 310 -13 6 -24 15 -24
20 0 4 -7 8 -16 8 -8 0 -12 5 -9 10 3 6 0 10 -9 10 -8 0 -16 4 -18 9 -6 17
-165 114 -273 167 -253 124 -500 183 -785 188 -187 4 -334 -12 -500 -54 -171
-44 -248 -72 -430 -158 -148 -70 -308 -182 -429 -302 -31 -30 -74 -71 -96 -91
-40 -36 -116 -119 -108 -119 2 0 -15 -25 -38 -55 -23 -30 -45 -55 -50 -55 -5
0 -9 -8 -9 -19 0 -10 -7 -24 -15 -31 -8 -7 -15 -17 -15 -23 0 -6 -6 -18 -14
-26 -7 -9 -27 -41 -43 -71 -54 -99 -95 -170 -99 -170 -19 0 143 299 167 308 5
2 9 9 9 14 0 27 163 224 274 332 114 110 187 166 361 274 172 107 488 214 730
246 141 19 404 19 534 0z m-119 -59 c52 -9 112 -18 132 -21 52 -7 213 -57 298
-93 85 -35 261 -137 353 -203 71 -51 147 -120 147 -133 0 -5 7 -15 15 -24 41
-42 65 -77 60 -89 -2 -7 2 -15 10 -18 8 -4 15 -11 15 -18 0 -6 9 -28 20 -49
11 -20 20 -47 20 -60 0 -13 3 -27 7 -31 4 -4 8 -15 8 -24 1 -32 18 -117 24
-127 8 -11 6 -71 -8 -200 -12 -107 -19 -138 -33 -146 -6 -4 -10 -20 -10 -35 0
-16 -7 -38 -14 -50 -8 -11 -11 -24 -7 -28 4 -4 0 -4 -10 0 -12 4 -17 1 -17
-11 0 -9 -4 -13 -10 -10 -9 5 -15 -23 -11 -48 3 -15 -40 -67 -50 -62 -5 4 -9
-7 -9 -24 0 -25 -5 -32 -26 -37 -18 -5 -22 -9 -13 -15 9 -5 5 -10 -14 -14 -15
-4 -27 -13 -27 -21 0 -8 -7 -14 -15 -14 -8 0 -19 -9 -25 -20 -6 -11 -19 -20
-29 -20 -11 0 -22 -7 -25 -16 -4 -10 -13 -13 -26 -9 -13 4 -22 1 -26 -9 -3 -9
-16 -16 -29 -16 -12 0 -34 -9 -49 -21 -17 -14 -33 -18 -44 -13 -9 4 -20 6 -24
6 -5 -1 -8 7 -8 17 0 11 -5 23 -10 26 -6 4 -8 10 -5 15 3 5 1 11 -5 15 -5 3
-10 21 -10 40 0 40 -29 165 -59 253 -37 108 -95 223 -165 327 -72 105 -167
227 -173 221 -2 -2 21 -45 52 -97 219 -370 190 -698 -85 -952 -98 -91 -209
-165 -219 -148 -5 7 -11 9 -14 4 -3 -5 -9 -260 -13 -566 -7 -560 -5 -596 27
-536 6 11 47 64 91 116 88 105 141 195 130 222 -18 43 -72 88 -92 76 -6 -4
-10 -2 -10 3 0 6 -6 12 -14 15 -12 5 -14 -8 -13 -69 1 -41 -1 -74 -4 -74 -4 0
-14 26 -23 58 -68 242 97 528 389 674 58 29 161 66 219 78 109 22 217 41 391
70 105 17 223 39 263 49 62 17 74 17 79 5 9 -25 -76 -284 -132 -401 -30 -62
-56 -113 -60 -113 -5 0 12 39 35 81 7 13 4 18 -11 22 -10 3 -19 1 -19 -5 0
-11 -25 -38 -37 -38 -4 0 -21 -16 -38 -35 -16 -19 -34 -35 -40 -35 -6 0 -18
-8 -26 -17 -9 -10 -42 -40 -75 -68 -103 -87 -179 -170 -161 -173 10 -2 17 -7
17 -12 0 -14 -67 -29 -188 -42 -62 -6 -107 -15 -101 -18 6 -4 -12 -10 -39 -14
-28 -4 -52 -12 -55 -19 -3 -9 -8 -9 -20 1 -14 12 -19 12 -32 -2 -17 -17 -35
-21 -35 -8 1 19 18 29 48 28 19 -1 36 3 39 7 7 12 -80 5 -96 -7 -11 -8 -13 -8
-7 2 4 6 4 12 -1 12 -11 0 -203 -193 -203 -203 0 -11 -129 -173 -162 -204 -19
-18 -24 -34 -26 -88 -2 -36 -6 -76 -8 -88 -3 -12 -8 -64 -11 -115 -3 -51 -10
-95 -14 -98 -5 -3 -9 -12 -9 -21 0 -8 -9 -26 -19 -40 l-20 -24 -4 213 c-2 117
-6 222 -10 233 -3 11 -6 23 -6 27 -1 4 -8 5 -16 2 -10 -4 -30 10 -58 41 -66
75 -68 80 -54 100 12 15 19 10 71 -52 32 -37 62 -69 66 -71 9 -3 23 1012 14
1065 -5 33 -11 42 -38 51 -66 24 -244 208 -315 326 -46 78 -81 169 -96 251
-11 57 -13 63 -14 30 -1 -46 14 -149 30 -215 13 -48 97 -229 148 -318 30 -51
36 -100 12 -94 -6 1 -11 -7 -11 -19 0 -17 -4 -19 -22 -13 -13 4 -41 9 -63 10
-22 1 -92 19 -155 39 -158 51 -272 76 -527 116 -70 11 -265 54 -317 70 -19 5
-32 5 -36 -1 -4 -6 -16 1 -28 15 -12 14 -19 25 -14 25 4 0 -2 7 -13 16 -11 8
-21 19 -21 24 -1 6 -2 15 -3 21 0 5 -4 8 -8 6 -5 -3 -9 9 -10 25 -1 17 -8 36
-14 44 -6 8 -9 14 -7 14 5 0 0 28 -22 130 -12 54 -20 111 -20 140 0 8 0 28 0
43 0 24 7 94 25 225 2 18 11 47 20 64 8 17 15 35 15 40 0 5 8 28 19 51 10 23
35 79 55 123 20 45 36 85 36 89 0 22 106 153 199 246 90 89 213 185 271 212 8
4 24 13 34 19 77 50 126 77 126 71 0 -4 4 -3 8 2 26 35 413 154 572 175 47 7
87 14 89 16 10 10 235 2 321 -11z m4216 -220 c41 -4 77 -12 81 -18 3 -5 9 -40
12 -76 8 -91 6 -844 -3 -1071 -4 -102 -9 -230 -11 -285 -9 -218 -18 -360 -24
-363 -3 -1 -6 -32 -5 -70 0 -37 -2 -71 -5 -77 -9 -17 -8 -45 1 -45 5 0 6 -5 2
-11 -7 -11 -13 -119 -16 -266 0 -40 -5 -73 -11 -73 -5 0 -4 -7 3 -15 7 -9 10
-25 6 -37 -9 -30 -18 -197 -19 -375 -1 -79 -4 -143 -7 -143 -3 0 -5 -55 -5
-123 0 -113 -2 -124 -23 -147 l-22 -25 -333 -6 c-439 -8 -1796 -4 -1823 5 -21
7 -52 56 -36 56 4 0 19 39 32 88 13 48 30 98 37 112 7 14 13 31 13 38 0 7 6
15 14 18 8 3 16 18 20 35 3 16 15 49 26 73 11 25 20 49 20 54 0 5 8 24 17 43
9 18 18 47 20 63 2 16 8 35 14 42 6 7 8 17 5 22 -3 5 2 31 10 58 17 58 63 288
64 324 0 14 3 66 6 115 3 50 5 124 5 166 l0 77 47 5 c26 4 189 9 362 13 173 3
316 8 318 9 2 2 -72 5 -165 9 -487 17 -545 21 -558 40 -8 10 -16 48 -20 84 -7
85 -49 294 -69 347 -6 17 -9 34 -8 39 3 9 -19 69 -39 108 -5 10 -9 25 -9 33 0
8 -4 23 -9 33 -12 21 -24 54 -26 67 -1 6 -7 24 -15 40 -7 17 -17 41 -22 55 -6
14 -14 33 -19 42 -5 10 -9 27 -9 38 0 11 -7 23 -16 27 -8 3 -13 12 -10 20 4 8
1 11 -5 7 -8 -4 -9 1 -4 15 3 11 2 21 -3 21 -9 0 -20 28 -28 70 -2 8 -8 16
-13 18 -6 2 -11 12 -11 22 0 9 -7 23 -15 30 -9 7 -13 20 -10 28 3 8 -3 21 -15
29 -11 8 -20 23 -20 34 0 10 -4 19 -10 19 -5 0 -10 6 -10 14 0 7 -9 25 -21 40
-11 14 -17 26 -12 26 4 0 4 4 -2 8 -13 9 -42 58 -61 105 -9 20 -23 37 -33 38
-9 0 -11 3 -4 6 9 3 7 11 -7 26 -11 11 -20 27 -20 34 0 7 -5 13 -11 13 -5 0
-8 4 -4 9 3 6 -3 14 -12 20 -10 6 -14 11 -10 11 4 0 2 10 -5 23 -7 12 -11 26
-10 30 1 5 -3 5 -10 1 -28 -18 -37 -12 -22 11 21 32 74 72 132 98 45 21 63 22
437 27 533 7 1930 3 2021 -5z m-2736 -465 c6 -11 8 -20 6 -20 -3 0 -10 9 -16
20 -6 11 -8 20 -6 20 3 0 10 -9 16 -20z m208 -355 c-3 -3 -9 2 -12 12 -6 14
-5 15 5 6 7 -7 10 -15 7 -18z m16 -31 c3 -8 2 -12 -4 -9 -6 3 -10 10 -10 16 0
14 7 11 14 -7z m-3726 -253 c-6 -28 -16 -51 -21 -51 -5 0 -7 6 -4 14 3 8 11
32 18 55 17 57 22 45 7 -18z m-24 -93 c-2 -18 -10 -68 -18 -113 -31 -171 -39
-377 -24 -630 l7 -120 -16 70 c-13 55 -17 122 -17 310 -1 239 4 291 41 448 17
69 35 92 27 35z m476 -469 c24 -5 157 -28 295 -50 338 -53 455 -84 563 -146
239 -137 368 -301 400 -509 10 -62 0 -174 -20 -230 -18 -51 -28 -19 -11 33 11
32 14 69 11 131 -6 104 -20 140 -54 138 -13 0 -24 -4 -24 -7 0 -3 -20 -27 -45
-53 -25 -27 -46 -58 -47 -70 -1 -23 -4 -78 -6 -146 l-2 -45 -31 31 -31 31 -24
-24 c-13 -13 -28 -22 -33 -19 -5 3 -11 -1 -15 -9 -3 -8 -14 -15 -24 -15 -10 0
-41 -12 -70 -26 -48 -24 -80 -25 -67 -3 4 5 1 9 -4 9 -6 0 -11 -4 -11 -10 0
-6 -9 -6 -24 0 -14 5 -41 6 -60 3 -24 -4 -36 -2 -36 6 0 7 -4 10 -8 7 -5 -3
-21 2 -36 9 -16 8 -33 12 -39 8 -5 -3 -7 -2 -4 4 3 5 -11 15 -31 23 -20 7 -50
22 -67 34 l-30 21 35 -45 c19 -25 46 -55 60 -68 l25 -23 -25 12 c-48 23 -186
175 -262 289 -42 63 -101 165 -131 225 -54 108 -178 413 -191 468 -7 31 1 33
74 16z m-486 -431 c3 -13 6 -32 6 -42 0 -29 -17 -7 -25 32 -7 36 9 45 19 10z
m13 -100 c-3 -8 -6 -5 -6 6 -1 11 2 17 5 13 3 -3 4 -12 1 -19z m3106 -23 c-9
-19 -18 -33 -21 -31 -4 5 26 66 33 66 3 0 -3 -16 -12 -35z m-2779 -1420 c24
-44 58 -67 226 -150 235 -117 375 -170 660 -248 63 -18 241 -53 315 -62 28 -4
60 -8 72 -10 37 -6 322 -19 403 -19 91 1 227 10 335 23 44 6 100 13 125 15 51
6 264 51 325 68 22 6 45 12 51 14 20 4 278 85 299 94 51 22 122 40 156 40 30
0 38 -4 43 -23 7 -31 10 -653 2 -665 -8 -13 -207 -30 -426 -37 -184 -6 -291
-14 -299 -21 -2 -2 153 -4 345 -3 192 0 357 -3 367 -6 16 -7 17 -31 17 -322
l0 -315 -571 4 -571 5 -17 26 c-39 60 -133 103 -200 91 -50 -9 -116 -48 -148
-89 l-28 -35 -485 0 c-296 0 -491 -4 -500 -10 -18 -11 -38 -11 544 -19 l429
-6 14 -49 c44 -151 181 -220 299 -151 56 33 82 71 96 139 l11 56 559 -2 560
-3 -1 -171 c0 -95 -5 -183 -11 -198 -10 -27 -12 -28 -58 -21 -26 4 -54 7 -62
6 -36 -3 -1855 -1 -2150 3 -179 2 -334 7 -344 11 -13 6 -17 5 -13 -2 5 -7 -6
-10 -31 -7 -41 3 -243 4 -307 1 -27 -2 -48 -10 -64 -26 -23 -23 -25 -23 -37
-6 -7 9 -16 40 -19 69 -9 71 -1 998 8 1014 6 8 40 12 113 12 l104 0 0 -37 c0
-62 19 -112 58 -155 60 -66 138 -86 213 -54 68 29 122 113 119 185 -3 60 -3
61 42 61 48 0 48 6 -1 13 -18 3 -51 20 -72 37 -55 44 -100 60 -166 60 -50 0
-67 -5 -117 -37 l-59 -37 -111 3 c-63 1 -116 7 -124 13 -11 10 -13 90 -10 442
4 447 5 458 46 509 21 24 25 22 46 -18z m4855 -257 c42 -59 109 -155 149 -212
41 -58 115 -156 165 -218 232 -289 326 -440 364 -588 23 -90 23 -247 0 -325
-37 -122 -94 -222 -170 -299 -67 -67 -156 -133 -202 -150 -22 -8 -15 1 13 18
74 44 122 80 122 91 0 8 8 16 19 20 28 8 61 40 61 58 0 8 6 17 14 20 14 6 80
107 70 107 -4 0 -1 7 6 15 7 8 9 15 6 15 -4 0 -2 9 5 21 33 62 49 170 40 264
l-2 20 -9 -20 c-5 -11 -9 -36 -9 -55 -1 -35 -21 -103 -34 -116 -4 -4 -7 -17
-7 -29 0 -12 -9 -34 -21 -49 -11 -14 -18 -26 -14 -26 3 0 0 -10 -7 -23 -7 -12
-11 -25 -10 -29 1 -5 -3 -8 -8 -8 -6 0 -10 -5 -10 -11 0 -27 -133 -187 -151
-181 -5 1 -9 -2 -9 -8 0 -5 -5 -10 -12 -10 -6 0 -20 -7 -30 -17 -34 -31 -143
-85 -213 -106 -50 -15 -91 -21 -215 -33 -71 -7 -92 -14 -40 -14 18 0 31 -3 27
-6 -12 -12 -210 18 -285 43 -311 104 -528 404 -508 703 15 220 89 373 315 650
57 69 182 223 279 344 97 120 184 227 192 237 8 10 21 18 29 16 8 -1 48 -50
90 -109z m-6454 78 c32 -32 131 -187 166 -261 41 -86 69 -179 69 -231 0 -58
-39 -160 -84 -222 -34 -45 -58 -66 -102 -88 l-57 -28 6 -235 c5 -207 7 -237
23 -248 9 -7 22 -9 28 -6 6 4 3 -3 -6 -14 -11 -11 -18 -36 -18 -59 0 -28 -6
-43 -19 -51 -17 -11 -19 -7 -26 40 -5 29 -9 61 -9 72 -1 11 -4 25 -9 32 -4 6
-5 115 -3 242 2 128 0 248 -5 268 -6 27 -23 51 -65 87 -32 28 -77 77 -101 109
l-43 59 0 -33 c0 -23 15 -57 45 -104 25 -38 57 -94 72 -123 28 -58 44 -162 24
-162 -6 0 -11 7 -11 15 0 18 -16 20 -23 3 -3 -8 -6 -6 -6 5 -1 20 -17 23 -24
3 -3 -7 -9 -35 -13 -62 -8 -59 -42 -136 -56 -128 -6 4 -5 -2 1 -14 16 -30 14
-33 -14 -20 -14 6 -25 15 -25 19 0 4 -7 9 -15 13 -8 3 -14 0 -12 -7 1 -6 -9
-13 -23 -15 -14 -2 -51 -13 -84 -23 -32 -11 -65 -18 -72 -15 -7 3 -16 1 -19
-4 -7 -11 -136 -1 -149 11 -6 5 -22 9 -37 9 -15 0 -32 7 -39 15 -7 8 -19 15
-26 15 -8 0 -14 5 -14 11 0 5 -5 7 -12 3 -6 -4 -17 1 -25 11 -29 41 -11 -6 25
-61 56 -87 58 -91 32 -69 -75 66 -153 212 -196 371 -26 94 -28 114 -32 372 -3
244 -2 272 12 272 9 0 77 -20 151 -45 224 -73 385 -159 496 -262 l46 -43 1 82
c1 138 38 247 121 358 40 53 129 150 138 150 2 0 11 -6 18 -14z m715 -368 c0
-7 5 -91 10 -187 11 -187 2 -334 -24 -406 -18 -51 -19 -43 -1 85 8 58 14 119
14 135 l0 30 -14 -34 c-8 -18 -15 -42 -15 -52 0 -11 -5 -19 -11 -19 -5 0 -8
-4 -4 -10 5 -9 -10 -31 -47 -71 -25 -27 -40 -59 -34 -74 3 -10 -6 -16 -30 -21
-32 -6 -74 -47 -74 -72 0 -5 -8 -13 -17 -16 -13 -6 -14 -9 -5 -15 31 -19 -127
-55 -196 -45 -36 5 -43 10 -39 25 3 10 -42 -29 -99 -86 -57 -58 -104 -101
-104 -96 0 4 10 19 21 32 12 13 28 34 36 46 8 13 19 20 24 17 5 -3 9 -2 8 3
-1 4 1 15 5 25 4 9 3 33 -3 53 -5 20 -8 42 -5 50 3 7 1 16 -5 20 -13 8 -14 48
-2 89 5 17 17 59 25 93 9 37 35 91 62 133 25 40 54 95 64 123 23 66 53 90 197
162 158 79 263 112 263 83z m-626 -728 c5 -32 5 -33 -5 -10 -6 14 -12 63 -14
110 l-4 85 8 -75 c5 -41 11 -91 15 -110z m220 -155 c21 -3 42 -7 45 -11 15
-15 -147 10 -163 26 -4 5 11 4 35 -1 24 -6 62 -12 83 -14z m7402 -223 c-33
-95 -107 -240 -170 -332 -198 -288 -518 -479 -891 -531 -121 -17 -7002 -19
-7080 -2 -42 9 -9 11 195 13 135 1 254 3 265 5 51 10 205 26 236 25 54 -3 134
9 137 20 2 6 10 6 22 0 12 -6 38 -6 76 1 42 8 59 8 62 0 2 -6 8 -8 13 -5 19
11 320 21 336 11 6 -4 17 -2 25 5 7 7 20 15 28 18 24 8 2399 5 2560 -3 80 -5
168 -9 195 -10 28 -1 53 -6 57 -12 5 -6 12 -5 19 2 8 8 17 9 24 3 7 -5 40 -10
73 -11 34 -1 62 -6 62 -10 0 -5 12 -9 28 -9 21 0 24 2 12 10 -8 5 -10 10 -4
10 6 0 14 -3 18 -7 4 -4 33 -9 64 -10 31 -1 91 -8 132 -15 58 -10 260 -13 885
-13 830 0 913 1 1025 16 87 12 95 16 80 34 -10 12 0 14 67 15 121 1 286 10
303 17 8 3 29 7 47 8 18 1 38 7 45 12 7 6 29 13 48 16 63 10 94 19 137 38 24
10 47 19 52 19 14 0 156 75 207 111 169 116 336 309 429 496 19 38 34 63 35
56 0 -15 29 -10 41 8 6 10 9 7 9 -13 0 -35 17 -36 32 -3 6 14 15 25 20 25 4 0
8 8 9 18 0 10 3 12 6 5 2 -7 9 -13 15 -13 6 0 7 7 4 16 -3 8 -2 12 3 9 5 -3
13 4 16 16 4 11 9 19 11 16 2 -2 -7 -36 -20 -75z m-1329 -488 c-3 -3 -12 -4
-19 -1 -8 3 -5 6 6 6 11 1 17 -2 13 -5z m180 -270 c-3 -3 -12 -4 -19 -1 -8 3
-5 6 6 6 11 1 17 -2 13 -5z"/>
<path d="M1765 8957 c-78 -51 -164 -106 -192 -124 -92 -56 -88 -34 -88 -468 0
-342 2 -385 18 -427 18 -46 75 -108 100 -108 7 0 -2 11 -20 25 -35 28 -79 93
-69 102 3 4 6 1 6 -6 0 -17 78 -91 98 -93 32 -2 37 -4 49 -11 6 -4 13 -2 15 4
2 6 15 2 31 -11 15 -12 31 -19 37 -15 6 4 7 -1 3 -11 -4 -12 -3 -15 5 -10 7 4
12 2 12 -4 0 -7 7 -10 15 -6 8 3 15 2 15 -3 0 -5 14 -14 30 -21 26 -11 39 -10
80 3 56 18 123 60 113 70 -3 4 1 7 10 7 9 0 17 5 17 10 0 6 8 10 17 10 9 0 13
3 10 6 -8 8 44 50 56 46 5 -1 6 2 2 7 -3 6 6 13 20 17 14 3 25 14 26 23 0 13
2 13 8 -2 6 -17 8 -16 19 8 7 14 12 32 12 40 0 8 4 15 10 15 5 0 7 7 4 15 -4
9 0 15 10 15 17 0 36 29 36 55 0 9 6 23 14 30 17 17 31 253 30 482 -1 135 -3
155 -20 174 -10 11 -77 57 -149 101 -71 44 -154 95 -182 114 -29 19 -56 34
-60 33 -5 0 -71 -42 -148 -92z m431 -727 c-2 -91 -9 -181 -15 -200 -16 -52
-66 -107 -148 -161 -99 -64 -137 -70 -216 -31 -118 58 -188 139 -206 238 -8
43 3 331 13 342 2 2 31 4 65 5 41 1 62 7 66 16 4 10 8 11 20 1 9 -7 22 -9 32
-4 10 4 41 9 68 11 28 1 82 5 121 7 40 2 80 9 90 14 11 6 31 8 45 5 20 -4 28
1 37 22 7 14 13 34 13 43 1 9 6 -19 11 -63 5 -44 7 -154 4 -245z"/>
<path d="M1152 8933 c-11 -28 -23 -501 -14 -548 5 -27 28 -29 56 -6 9 7 16 10
16 7 0 -4 16 8 35 27 19 19 35 39 35 44 0 6 7 13 15 17 8 3 15 11 15 17 0 7 7
20 16 30 13 14 13 21 4 40 -11 19 -10 21 3 16 13 -5 15 -2 7 18 -8 20 -6 23 7
18 12 -5 14 -3 7 8 -4 8 -7 22 -6 31 2 10 -7 39 -19 65 -27 58 -34 97 -15 90
9 -4 12 4 11 24 -1 24 2 29 14 24 14 -5 14 -4 1 8 -22 21 -152 97 -166 97 -6
0 -16 -12 -22 -27z m159 -70 c-11 -5 -11 -7 0 -14 11 -6 11 -11 1 -21 -9 -9
-15 -9 -24 1 -11 10 -9 11 7 5 17 -7 18 -5 8 8 -13 15 -8 29 11 27 6 0 5 -3
-3 -6z"/>
<path d="M2260 7842 c-25 -19 -103 -75 -175 -124 -71 -50 -142 -102 -157 -116
-28 -26 -38 -62 -17 -62 5 0 7 -4 4 -10 -3 -5 0 -10 7 -10 43 1 159 66 251
143 26 21 47 36 47 33 0 -3 8 1 18 9 41 37 81 65 90 65 11 0 52 52 52 65 0 4
-7 4 -16 1 -8 -3 -13 -2 -10 2 2 4 -8 15 -23 23 -26 15 -29 14 -71 -19z"/>
<path d="M5955 8580 c-3 -5 -3 -10 0 -10 4 0 -5 -14 -19 -31 -34 -40 -41 -72
-27 -120 23 -75 111 -103 170 -53 27 22 31 33 31 73 0 26 -8 63 -19 84 -17 33
-17 39 -4 44 12 5 12 7 1 14 -18 12 -126 11 -133 -1z"/>
<path d="M5908 8573 c7 -3 16 -2 19 1 4 3 -2 6 -13 5 -11 0 -14 -3 -6 -6z"/>
<path d="M5890 7030 c-9 -6 -10 -10 -3 -10 6 0 15 5 18 10 8 12 4 12 -15 0z"/>
<path d="M1360 5639 c-92 -10 -157 -55 -196 -136 -61 -124 -14 -256 109 -308
l37 -15 0 32 c1 48 47 110 96 127 56 20 125 8 164 -29 l30 -28 17 31 c23 43
24 161 1 202 -53 96 -140 138 -258 124z"/>
<path d="M3070 4275 c0 -5 5 -17 10 -25 5 -8 10 -10 10 -5 0 6 -5 17 -10 25
-5 8 -10 11 -10 5z"/>
<path d="M9783 4480 c0 -25 2 -35 4 -22 2 12 2 32 0 45 -2 12 -4 2 -4 -23z"/>
<path d="M9782 4370 c0 -14 2 -19 5 -12 2 6 2 18 0 25 -3 6 -5 1 -5 -13z"/>
<path d="M8692 5698 c-51 -17 -118 -83 -138 -133 -31 -83 -2 -185 69 -236 50
-37 64 -36 72 1 9 43 55 71 126 77 56 5 62 4 99 -26 l39 -31 28 37 c25 32 28
45 28 108 0 63 -4 77 -29 114 -44 63 -103 93 -190 97 -39 2 -86 -2 -104 -8z"/>
<path d="M4540 1988 c-26 -13 -57 -41 -75 -66 -25 -37 -29 -52 -28 -103 1 -71
25 -121 77 -163 34 -28 45 -31 109 -31 60 0 78 4 109 25 114 77 110 257 -8
326 -64 38 -127 42 -184 12z"/>
<path d="M2185 2401 c10 -33 10 -169 0 -201 -6 -21 -5 -23 6 -12 20 18 20 206
0 224 -11 11 -12 9 -6 -11z"/>
<path d="M2005 2039 c-4 -6 -4 -13 -1 -16 3 -4 6 -1 6 6 0 7 5 9 10 6 6 -3 10
-1 10 4 0 14 -17 14 -25 0z"/>
<path d="M6658 10233 c7 -3 16 -2 19 1 4 3 -2 6 -13 5 -11 0 -14 -3 -6 -6z"/>
<path d="M6708 10233 c7 -3 16 -2 19 1 4 3 -2 6 -13 5 -11 0 -14 -3 -6 -6z"/>
<path d="M2800 10186 c0 -2 7 -7 16 -10 8 -3 12 -2 9 4 -6 10 -25 14 -25 6z"/>
<path d="M6847 10084 c-7 -8 3 -37 17 -46 12 -8 26 20 19 40 -5 13 -25 16 -36
6z"/>
<path d="M7808 9913 c7 -3 16 -2 19 1 4 3 -2 6 -13 5 -11 0 -14 -3 -6 -6z"/>
<path d="M2150 9880 c0 -5 7 -7 15 -4 8 4 15 8 15 10 0 2 -7 4 -15 4 -8 0 -15
-4 -15 -10z"/>
</g>
</svg>
