<?xml version="1.0" standalone="no"?>
<!DOCTYPE svg PUBLIC "-//W3C//DTD SVG 20010904//EN"
 "http://www.w3.org/TR/2001/REC-SVG-20010904/DTD/svg10.dtd">
<svg version="1.0" xmlns="http://www.w3.org/2000/svg"
 width="1024.000000pt" height="1024.000000pt" viewBox="0 0 1024.000000 1024.000000"
 preserveAspectRatio="xMidYMid meet">

<g transform="translate(0.000000,1024.000000) scale(0.100000,-0.100000)"
fill="#000000" stroke="none">
<path d="M0 5120 l0 -5120 5120 0 5120 0 0 5120 0 5120 -5120 0 -5120 0 0
-5120z m5555 4510 c536 -43 1059 -190 1530 -430 138 -70 424 -237 445 -260 3
-3 34 -25 70 -50 118 -81 292 -218 415 -329 111 -100 360 -363 445 -471 19
-24 47 -58 61 -75 87 -102 274 -369 325 -465 14 -25 43 -74 65 -110 68 -112
211 -401 205 -417 -3 -7 -2 -12 3 -9 8 5 12 -3 20 -36 0 -5 10 -24 22 -44 14
-26 17 -40 10 -47 -14 -14 -14 -47 0 -47 6 0 8 9 4 23 -6 21 -6 21 14 -3 23
-28 26 -40 11 -40 -5 0 -10 -4 -10 -10 0 -5 5 -9 12 -7 7 1 17 -14 24 -33 7
-19 24 -66 39 -105 28 -75 37 -118 24 -109 -5 3 -10 -5 -10 -18 -1 -20 -2 -21
-6 -3 -3 11 -10 23 -15 26 -6 4 -7 13 -3 20 6 9 10 8 16 -7 6 -16 8 -15 8 8 1
17 -4 27 -11 25 -8 -1 -13 9 -13 25 0 15 -6 33 -12 39 -11 11 -13 8 -13 -14 0
-23 -2 -26 -14 -15 -8 8 -10 16 -4 19 5 3 -2 26 -16 51 -14 25 -22 48 -19 52
4 3 1 6 -6 6 -7 0 -21 -10 -30 -22 -24 -29 -41 -15 -41 32 0 23 -5 40 -14 43
-22 9 -27 -4 -11 -27 8 -11 15 -30 15 -41 0 -15 -5 -12 -17 13 l-16 34 -13
-24 c-7 -12 -13 -18 -14 -11 0 6 -3 19 -7 29 -4 12 -3 15 5 10 7 -4 16 3 23
18 7 14 16 23 20 20 5 -3 9 4 9 14 0 11 -7 22 -15 26 -8 3 -15 1 -15 -4 0 -6
-7 -10 -15 -10 -8 0 -15 9 -15 19 0 11 -4 23 -10 26 -12 7 -1 -57 11 -65 4 -3
4 -12 0 -19 -6 -9 -13 3 -22 38 -7 28 -16 51 -20 51 -3 0 -12 14 -19 30 -7 17
-15 29 -17 26 -7 -6 28 -96 37 -96 4 0 7 -6 7 -12 1 -7 15 -51 33 -98 61 -165
82 -226 120 -353 44 -144 91 -343 89 -378 -1 -21 -2 -21 -6 -4 -73 316 -120
474 -219 723 -75 189 -105 256 -179 404 -242 481 -518 866 -856 1193 -630 610
-1392 969 -2294 1081 -167 20 -458 31 -650 23 -148 -6 -359 -28 -351 -36 2 -3
53 0 113 6 59 6 171 14 248 17 158 7 495 -4 495 -16 0 -5 -9 -6 -20 -3 -11 3
-27 0 -35 -7 -10 -9 -15 -9 -15 -1 0 6 -10 11 -22 11 -17 0 -19 -3 -9 -9 18
-11 -3 -24 -27 -17 -9 3 -24 1 -32 -4 -11 -7 -4 -10 25 -10 22 0 47 -5 55 -10
10 -7 3 -8 -25 -5 -22 3 -53 3 -70 -1 -26 -6 -28 -8 -10 -14 14 -6 10 -7 -17
-7 -21 1 -34 3 -29 6 5 4 -20 6 -55 6 -35 0 -64 -2 -64 -5 0 -3 -45 -7 -101
-8 -55 -1 -105 -4 -110 -7 -5 -4 -9 -1 -9 5 0 6 -4 9 -9 5 -22 -13 -230 -24
-234 -12 -1 5 -16 5 -32 1 -26 -6 -27 -8 -10 -15 16 -6 17 -8 3 -8 -9 -1 -24
7 -34 16 -16 16 -16 16 -9 -6 6 -21 5 -22 -14 -12 -12 7 -21 17 -21 22 0 7 -7
8 -17 4 -10 -4 -36 -8 -58 -9 -22 -2 -50 -8 -62 -14 -12 -7 -32 -12 -45 -12
-43 0 -103 -13 -110 -24 -6 -8 -10 -7 -16 2 -5 8 -16 10 -27 6 -13 -5 -16 -4
-11 4 4 7 1 12 -8 12 -9 0 -15 -3 -15 -7 3 -21 -2 -33 -12 -28 -6 4 -8 13 -6
19 4 9 -3 11 -19 8 -20 -4 -22 -7 -12 -19 10 -13 9 -15 -7 -11 -11 2 -19 9
-18 15 1 7 -6 9 -19 5 -20 -5 -21 -6 -3 -12 15 -5 16 -8 4 -16 -8 -5 -23 -9
-34 -9 -11 0 -19 -5 -18 -11 1 -7 -6 -10 -18 -7 -13 4 -27 -2 -39 -15 -20 -21
-20 -21 10 -17 16 2 33 6 38 9 4 2 14 1 22 -5 12 -7 9 -9 -10 -10 -14 -1 -31
-2 -37 -2 -7 1 -13 -3 -13 -8 0 -18 -30 -9 -41 12 -8 16 -13 18 -19 9 -6 -9
-10 -9 -21 2 -7 8 -23 12 -36 10 -33 -6 -38 -20 -5 -16 26 4 26 4 -3 -6 -16
-6 -41 -12 -54 -15 -13 -2 -27 -8 -30 -14 -9 -14 -77 -30 -92 -20 -8 4 -25 6
-39 3 -20 -4 -22 -3 -10 5 17 12 10 14 -14 5 -14 -5 -13 -9 5 -25 24 -21 24
-21 -40 -23 -38 -2 -41 -1 -25 11 20 14 7 18 -15 4 -8 -5 -11 -16 -8 -26 6
-13 3 -15 -13 -10 -11 4 -20 2 -20 -4 0 -6 14 -11 30 -11 17 0 30 5 30 10 0 6
7 10 15 10 32 0 13 -20 -25 -26 -22 -4 -37 -10 -35 -15 3 -4 0 -11 -6 -15 -8
-4 -9 -3 -5 4 10 16 -5 14 -28 -3 -11 -8 -29 -15 -40 -15 -17 0 -18 -2 -6 -10
8 -5 11 -12 7 -17 -9 -9 -28 17 -23 32 1 6 12 9 23 7 10 -1 28 7 39 19 18 21
18 22 1 16 -10 -4 -23 -7 -28 -7 -6 0 -8 -4 -4 -9 6 -11 -37 -11 -45 0 -3 4
-21 -1 -40 -12 -19 -10 -29 -18 -22 -19 7 0 10 -4 7 -10 -7 -12 -3 -12 19 -4
9 3 16 10 16 16 0 5 -6 6 -12 2 -10 -5 -10 -4 -1 6 6 7 17 10 24 8 9 -3 7 -10
-8 -25 -12 -12 -19 -23 -17 -26 3 -2 -7 -2 -20 0 -14 3 -24 8 -23 12 4 12 -14
13 -43 1 -16 -7 -27 -16 -24 -21 5 -9 -9 -13 -33 -10 -15 2 -123 -58 -122 -67
3 -18 -2 -26 -9 -15 -6 10 -12 10 -28 -2 -19 -15 -19 -15 1 -9 19 5 19 5 3 -9
-10 -8 -15 -17 -11 -21 4 -4 0 -4 -10 0 -9 3 -14 10 -11 15 3 5 2 9 -1 9 -9 0
-145 -81 -145 -87 0 -2 6 -1 13 3 7 4 8 3 4 -2 -5 -5 -16 -9 -25 -9 -9 0 -16
-6 -14 -13 1 -8 -2 -11 -7 -7 -14 8 -92 -45 -84 -58 3 -6 1 -7 -6 -3 -11 7
-64 -27 -55 -36 2 -3 -4 -11 -13 -19 -17 -13 -17 -13 -3 5 27 35 -6 13 -130
-82 -70 -54 -117 -98 -114 -104 5 -7 2 -8 -5 -4 -14 9 -53 -22 -45 -35 3 -5
-1 -6 -9 -3 -17 6 -309 -275 -414 -400 -294 -350 -547 -774 -747 -1254 -158
-377 -257 -743 -301 -1112 -19 -162 -37 -613 -31 -760 4 -78 3 -92 -4 -55 -4
28 -9 82 -10 120 -1 59 -17 138 -19 97 -1 -7 -5 -11 -9 -8 -11 7 -44 -32 -37
-43 6 -11 -23 -23 -36 -15 -12 7 -41 -15 -34 -26 3 -5 1 -11 -5 -15 -5 -3 -10
3 -10 15 0 12 -4 18 -10 15 -5 -3 -10 -16 -10 -28 0 -20 -1 -20 -14 -2 -21 30
-14 -120 29 -540 7 -77 12 -141 10 -143 -5 -5 -25 68 -26 98 -1 21 -2 22 -7 5
-7 -28 -28 97 -48 295 -20 195 -23 568 -5 770 58 655 275 1346 601 1916 339
592 717 1023 1236 1411 543 405 1235 695 1940 813 132 22 337 48 414 53 130 8
535 6 645 -3z m18 -207 c-7 -2 -19 -2 -25 0 -7 3 -2 5 12 5 14 0 19 -2 13 -5z
m-46 -19 c-3 -3 -12 -4 -19 -1 -8 3 -5 6 6 6 11 1 17 -2 13 -5z m-409 -71
c-21 -2 -55 -2 -75 0 -21 2 -4 4 37 4 41 0 58 -2 38 -4z m159 1 c-3 -3 -12 -4
-19 -1 -8 3 -5 6 6 6 11 1 17 -2 13 -5z m-852 -54 c3 -5 2 -10 -4 -10 -5 0
-13 5 -16 10 -3 6 -2 10 4 10 5 0 13 -4 16 -10z m-175 -30 c-8 -5 -19 -10 -25
-10 -5 0 -3 5 5 10 8 5 20 10 25 10 6 0 3 -5 -5 -10z m-80 -15 c0 -8 -4 -15
-10 -15 -5 0 -7 7 -4 15 4 8 8 15 10 15 2 0 4 -7 4 -15z m-38 -27 c-7 -7 -12
-8 -12 -2 0 14 12 26 19 19 2 -3 -1 -11 -7 -17z m-402 -68 c0 -5 -4 -10 -10
-10 -5 0 -10 5 -10 10 0 6 5 10 10 10 6 0 10 -4 10 -10z m17 -56 c-3 -3 -12
-4 -19 -1 -8 3 -5 6 6 6 11 1 17 -2 13 -5z m1608 -4 c403 -23 725 -88 1090
-218 141 -50 498 -225 635 -312 151 -95 190 -121 190 -127 0 -3 -11 2 -24 10
-13 9 -62 40 -107 68 -46 29 -100 62 -119 75 -64 41 -344 180 -455 227 -289
121 -664 213 -1010 248 -182 18 -591 16 -760 -5 -467 -58 -947 -203 -1325
-402 -139 -73 -153 -90 -21 -24 58 29 144 67 192 85 48 19 108 43 135 55 88
41 121 49 134 37 9 -9 11 -9 8 1 -2 8 8 18 22 23 24 9 24 8 6 -6 -19 -14 -19
-15 7 -15 15 0 27 -4 27 -10 0 -5 11 -12 25 -16 14 -3 25 -13 25 -21 0 -8 9
-17 20 -20 11 -3 17 -9 14 -14 -3 -5 3 -9 13 -9 11 0 24 -5 31 -12 7 -7 27
-14 45 -15 17 -2 48 -5 67 -8 48 -6 292 -14 613 -20 148 -2 273 -7 278 -10 5
-4 9 -1 9 5 0 7 6 8 18 1 10 -6 50 -11 89 -13 39 -2 69 -6 67 -9 -3 -6 191
-31 258 -33 20 0 34 -4 31 -8 -2 -5 14 -8 37 -8 23 0 50 -4 60 -10 10 -5 32
-11 50 -12 17 -1 34 -6 36 -10 3 -4 27 -8 53 -8 26 0 51 -3 54 -7 4 -3 22 -8
39 -9 69 -7 105 -13 168 -29 36 -9 80 -16 99 -15 43 1 93 -9 87 -19 -3 -4 3
-7 12 -8 9 -1 28 -4 42 -7 95 -21 229 -43 250 -40 127 15 199 16 253 0 31 -9
57 -21 57 -27 0 -6 4 -8 10 -4 10 6 32 -10 96 -72 27 -26 39 -43 31 -46 -9 -4
-9 -7 0 -14 18 -13 63 -115 65 -149 2 -27 28 -80 28 -59 1 6 10 -9 21 -32 11
-24 24 -43 29 -43 6 0 10 -5 10 -10 0 -37 174 -160 237 -166 51 -6 183 -60
183 -75 0 -4 18 -26 40 -50 22 -24 40 -48 40 -54 1 -5 9 -28 20 -50 11 -22 19
-54 20 -71 0 -17 10 -42 21 -55 12 -13 26 -36 31 -51 6 -16 14 -28 19 -28 5 0
9 -5 9 -10 0 -6 18 -38 40 -71 22 -33 40 -63 40 -65 0 -6 19 -30 51 -62 14
-15 39 -45 55 -67 16 -22 31 -42 34 -45 3 -3 16 -25 30 -50 13 -25 41 -67 61
-93 55 -73 101 -169 86 -180 -7 -5 -2 -5 13 -1 21 6 23 5 13 -8 -10 -12 -9
-18 5 -34 10 -11 18 -30 17 -42 -1 -12 2 -22 7 -22 4 0 8 -7 8 -15 0 -9 -6
-12 -16 -8 -14 5 -13 2 2 -16 11 -12 24 -45 31 -74 6 -28 20 -81 31 -117 69
-225 86 -282 98 -340 7 -36 18 -87 24 -115 6 -27 13 -66 16 -85 11 -90 16
-110 35 -161 11 -30 22 -63 24 -73 8 -36 28 -91 37 -102 5 -7 0 -38 -14 -79
l-22 -68 21 -38 21 -38 -25 10 c-43 16 -65 12 -62 -13 2 -13 0 -29 -4 -35 -5
-9 1 -17 18 -25 18 -8 22 -14 13 -20 -9 -5 -7 -8 7 -8 55 0 97 15 130 46 27
25 47 34 89 39 85 11 91 7 88 -50 -3 -77 -6 -80 -55 -50 -24 14 -47 25 -52 25
-4 0 -5 -18 -2 -39 4 -33 2 -41 -19 -52 -20 -10 -27 -10 -41 3 -10 9 -37 19
-61 23 -37 6 -49 3 -82 -19 -22 -14 -53 -26 -69 -26 -27 0 -61 -21 -61 -38 0
-3 5 -1 12 6 18 18 33 15 18 -3 -10 -12 -10 -22 -1 -43 l11 -27 -25 28 c-14
15 -25 24 -25 18 0 -5 4 -13 10 -16 11 -7 9 -55 -2 -55 -4 0 -8 8 -8 17 0 15
-2 15 -14 -2 -21 -29 -10 -42 40 -48 25 -2 51 -10 56 -15 16 -16 -16 -59 -56
-78 -26 -13 -32 -21 -28 -39 2 -12 -1 -26 -7 -29 -6 -4 -11 -12 -11 -18 0 -7
6 -6 15 2 18 15 20 -1 3 -18 -9 -9 -8 -12 8 -13 18 0 18 -1 -1 -9 -11 -5 -14
-9 -7 -9 6 -1 12 -5 12 -11 0 -11 -32 -1 -43 14 -5 6 -6 2 -3 -9 5 -19 2 -21
-28 -17 -24 3 -35 -1 -39 -12 -6 -14 -3 -15 14 -6 11 6 27 10 37 8 9 -1 22 0
27 4 6 3 19 -1 30 -9 19 -15 19 -15 -5 -9 -24 6 -23 6 3 -9 22 -13 26 -19 17
-30 -8 -9 -7 -14 3 -18 11 -4 13 2 11 23 -3 22 0 28 11 24 8 -4 12 -11 9 -16
-4 -6 -1 -9 7 -6 8 2 34 35 59 72 l44 68 21 -26 c30 -37 36 -32 14 11 -24 48
-24 73 -1 73 20 0 45 -24 56 -54 4 -11 12 -16 22 -12 9 3 22 6 29 6 7 0 35 20
62 45 26 25 53 43 60 41 6 -3 14 0 16 7 2 7 15 -10 28 -36 l24 -49 -26 -22
c-19 -16 -50 -26 -115 -35 -116 -17 -143 -26 -179 -57 -16 -14 -42 -33 -56
-41 -19 -12 -25 -21 -21 -40 3 -15 10 -22 18 -19 9 3 19 -7 29 -29 8 -20 18
-35 22 -34 20 3 25 -2 14 -15 -10 -12 -8 -17 11 -27 13 -7 28 -12 34 -11 6 1
16 -8 22 -20 l12 -23 -3 24 c-2 21 9 30 68 62 39 21 78 39 87 39 15 0 16 -3 3
-34 -35 -84 -64 -166 -56 -161 11 6 23 -57 15 -79 -4 -11 -2 -15 8 -11 8 3 14
15 14 27 -1 11 4 23 11 25 7 3 11 -7 11 -26 -1 -16 -6 -29 -11 -28 -12 2 -26
-56 -21 -86 2 -12 -1 -8 -7 8 -7 17 -15 32 -19 35 -3 3 -9 13 -13 23 -9 24
-27 22 -27 -4 0 -11 4 -18 9 -15 16 10 19 -19 6 -49 -9 -21 -14 -24 -14 -12
-2 45 -61 61 -61 17 0 -11 -3 -20 -8 -20 -4 0 -8 -33 -9 -72 0 -40 -4 -107 -8
-148 -4 -41 -7 -85 -6 -97 1 -28 -15 -38 -24 -15 -3 9 -8 55 -11 101 -2 46 -6
86 -9 89 -3 3 -5 -4 -5 -16 0 -12 -4 -22 -9 -22 -23 0 -61 -189 -60 -295 1
-36 -2 -69 -5 -72 -3 -4 -6 3 -6 15 0 12 -4 31 -9 44 -5 13 -12 36 -16 52 -6
27 -7 28 -21 10 -12 -17 -13 -17 -8 -1 3 9 1 17 -5 17 -6 0 -11 -5 -11 -11 0
-5 -4 -7 -10 -4 -5 3 -10 16 -10 28 -1 19 -2 20 -10 6 -6 -10 -7 -32 -4 -50
21 -127 12 -354 -17 -438 -12 -35 -29 -41 -29 -11 0 31 -21 120 -28 120 -4 0
-6 -34 -4 -76 2 -56 0 -74 -9 -68 -8 5 -9 3 -4 -6 4 -7 2 -16 -5 -20 -11 -7
-11 -14 -1 -39 24 -58 -7 -159 -71 -226 l-36 -39 -11 45 c-7 24 -16 53 -21 64
-8 18 -9 18 -9 -5 -1 -14 -7 -37 -15 -51 -7 -14 -16 -42 -20 -63 -4 -23 -11
-34 -18 -30 -7 5 -9 0 -5 -15 5 -22 -4 -38 -45 -82 -9 -9 -14 -19 -12 -22 3
-2 -7 -3 -21 -2 -41 5 -59 -4 -85 -43 -45 -66 -71 -91 -85 -85 -8 3 -15 13
-15 22 0 9 -5 23 -10 31 -8 13 -14 10 -35 -15 -13 -16 -24 -24 -25 -17 0 23
-26 12 -69 -28 -23 -22 -47 -40 -54 -39 -17 1 -54 17 -42 18 6 1 11 9 12 19 3
37 8 57 17 63 4 4 4 9 -2 13 -11 7 -83 -49 -114 -89 -11 -14 -24 -25 -30 -25
-6 0 -1 9 12 20 31 27 25 25 -56 -14 -121 -59 -247 -105 -360 -132 -94 -22
-124 -25 -214 -21 -58 3 -141 15 -184 26 -136 36 -126 38 149 27 180 -6 271 6
390 54 11 4 47 18 80 30 324 116 594 404 769 821 70 169 159 459 141 459 -2 0
-27 -9 -55 -20 -28 -11 -60 -20 -71 -20 -22 0 -166 -48 -184 -61 -5 -4 -129
-68 -275 -142 -354 -180 -390 -199 -390 -209 0 -4 81 32 179 82 275 137 418
202 568 256 53 19 97 33 99 31 5 -4 -23 -18 -300 -151 -110 -53 -197 -98 -194
-101 3 -3 17 -1 31 4 17 7 28 7 32 1 4 -6 0 -10 -7 -10 -8 0 -20 -10 -28 -21
-19 -27 -32 -40 -59 -59 -11 -8 -21 -20 -21 -27 0 -7 -8 -13 -17 -13 -19 -1
-64 -30 -47 -30 5 0 1 -5 -9 -11 -9 -6 -15 -14 -13 -18 3 -5 -5 -6 -18 -4 -13
3 -26 0 -30 -5 -4 -6 2 -8 14 -5 12 3 20 0 20 -6 0 -7 -4 -10 -9 -6 -5 3 -12
1 -15 -4 -4 -5 13 -16 36 -24 40 -15 41 -15 13 -16 -16 0 -73 8 -125 19 -52
11 -97 19 -100 19 -11 -2 121 -41 205 -60 50 -11 97 -23 105 -26 31 -12 -17
-14 -96 -4 -86 10 -105 8 -53 -8 26 -7 28 -9 12 -10 -13 -1 -23 -5 -23 -10 0
-5 -24 -26 -52 -47 -29 -20 -58 -43 -63 -49 -6 -7 -30 -22 -55 -35 -56 -28
-101 -65 -92 -75 4 -4 -4 -5 -18 -1 -25 6 -25 6 -2 -5 23 -13 31 -35 10 -26
-11 4 -109 22 -241 45 l-37 7 27 30 c51 55 59 70 18 35 -22 -19 -83 -81 -135
-137 -171 -183 -141 -104 39 106 25 29 82 86 127 125 111 97 119 104 202 160
39 27 72 51 72 52 0 1 -13 -3 -30 -9 -16 -6 -30 -15 -30 -19 0 -4 -5 -8 -10
-8 -10 0 -58 -31 -86 -55 -43 -36 -55 -44 -73 -42 -19 1 -21 8 -22 67 -1 36
-3 54 -5 40 -10 -65 -27 -136 -36 -147 -6 -7 -19 -13 -29 -13 -31 0 -99 31
-99 45 0 7 -3 15 -7 17 -13 5 -44 67 -49 96 -2 15 -7 43 -11 62 -10 52 -10 52
0 90 15 58 55 135 103 196 29 38 41 61 34 68 -28 28 232 166 395 209 166 44
219 51 402 51 l182 1 30 65 c79 177 186 592 218 843 24 190 24 660 0 810 -21
130 -21 125 -1 101 8 -10 13 -14 10 -7 -4 8 12 13 51 18 108 11 126 16 155 45
21 21 28 38 28 67 0 28 -3 34 -10 23 -6 -10 -10 -11 -10 -2 0 6 -4 12 -10 12
-5 0 -10 -10 -10 -21 0 -16 -3 -19 -12 -11 -7 5 -38 17 -68 26 -31 9 -69 29
-87 46 -18 16 -37 30 -43 30 -27 0 4 19 40 25 38 6 66 25 38 25 -17 0 -21 40
-5 41 7 1 -4 5 -23 10 -19 5 -54 6 -77 3 -49 -7 -56 1 -15 17 25 10 26 12 7
19 -11 5 -16 9 -11 9 5 1 2 9 -7 19 -10 10 -14 22 -10 25 3 4 -5 7 -18 7 -13
0 -31 5 -39 10 -13 9 -12 12 4 25 11 8 27 15 36 15 38 0 100 103 100 166 0 38
-3 43 -32 55 -18 7 -41 12 -50 11 -10 -1 -18 4 -18 11 0 9 -2 9 -8 -1 -5 -7
-15 26 -26 83 -10 52 -20 95 -22 95 -2 0 -1 -35 2 -77 l7 -78 -22 22 c-12 13
-35 30 -51 38 -28 15 -31 14 -38 -2 -4 -10 -7 -50 -7 -90 0 -40 -3 -69 -7 -65
-4 4 -45 82 -91 172 -85 169 -206 361 -306 485 -83 104 -93 115 -103 109 -5
-3 -7 0 -6 8 2 7 -3 12 -10 10 -8 -1 -11 2 -7 8 3 6 -31 48 -77 94 -46 47
-105 107 -132 135 -26 28 -52 48 -57 45 -5 -3 -9 2 -9 10 0 18 -54 58 -64 48
-4 -4 -6 -2 -4 4 7 24 -211 180 -372 267 -141 76 -378 178 -365 157 3 -6 13
-10 22 -10 9 0 14 -3 10 -6 -8 -8 -78 16 -73 24 2 4 -13 6 -35 6 -21 -1 -41 2
-44 7 -3 4 -12 6 -20 2 -8 -3 -15 0 -15 6 0 6 -7 8 -15 5 -8 -4 -15 -2 -15 3
0 5 -12 8 -26 8 -28 -2 -42 -18 -158 -185 -68 -98 -68 -103 12 -186 342 -363
348 -370 122 -149 -118 115 -217 213 -219 218 -5 12 63 119 152 236 l78 104
-28 12 c-15 6 -49 17 -74 24 -44 12 -46 12 -79 -19 -18 -17 -36 -27 -39 -23
-13 17 -172 14 -219 -4 -46 -17 -102 -63 -78 -63 8 0 19 -6 25 -14 7 -8 24
-12 39 -10 15 2 54 8 87 13 33 5 62 7 63 6 8 -8 -162 -55 -303 -85 -148 -31
-151 -32 -192 -74 -27 -28 -46 -40 -55 -35 -7 4 -74 15 -148 24 -104 14 -184
16 -348 13 l-212 -5 -6 26 c-24 106 -48 181 -58 178 -16 -5 -17 -66 0 -115 16
-50 18 -76 4 -67 -6 4 -10 -9 -11 -32 -2 -67 -7 -87 -34 -137 -40 -75 -22 -66
25 13 43 73 76 101 38 34 l-20 -38 26 32 27 33 187 -6 c383 -10 610 -43 660
-97 l21 -23 -20 -129 c-36 -227 -39 -256 -34 -266 3 -4 44 -36 90 -70 47 -34
85 -63 85 -64 0 -2 -10 -1 -22 2 -23 5 -23 5 -3 -11 11 -10 15 -15 9 -12 -9 4
-49 -49 -42 -57 2 -2 -10 -15 -26 -30 -16 -15 -25 -27 -20 -27 4 0 -12 -20
-36 -45 -24 -25 -50 -45 -58 -45 -13 0 130 -161 149 -168 5 -2 9 3 9 12 0 16
102 208 130 246 13 18 35 24 123 35 198 26 290 44 298 57 4 7 15 43 24 79 9
37 25 75 35 84 18 16 22 15 67 -9 27 -15 62 -38 78 -52 20 -16 5 -10 -44 17
-87 48 -92 46 -111 -50 -18 -86 -27 -94 -116 -114 -182 -40 -200 -45 -167 -46
42 -1 46 -16 37 -153 -8 -149 -35 -198 -108 -198 -29 0 -155 56 -181 81 -12
12 -42 12 -50 0 -3 -6 13 -34 35 -63 39 -52 50 -76 30 -63 -18 11 -11 -1 12
-21 22 -19 23 -19 8 1 -14 19 -14 19 3 6 9 -8 15 -16 12 -19 -2 -3 11 -26 29
-51 56 -76 167 -278 230 -416 32 -71 65 -137 72 -145 21 -26 46 -99 40 -117
-4 -10 -4 -14 0 -10 9 9 65 -149 63 -178 -1 -13 -4 -9 -8 10 l-7 30 -7 -28
c-9 -32 -27 -27 -27 8 0 13 -8 32 -19 42 -10 10 -38 70 -62 133 -62 168 -167
394 -223 480 -131 202 -322 429 -401 475 -20 11 -24 12 -11 2 10 -9 16 -20 13
-24 -3 -5 -1 -15 5 -23 8 -12 9 -11 4 4 -5 16 -4 17 9 6 8 -7 12 -17 8 -23 -3
-5 -1 -7 4 -4 6 4 17 -1 24 -10 12 -14 12 -16 0 -8 -10 6 -12 4 -6 -5 4 -7 2
-16 -6 -21 -11 -7 -11 -9 -1 -9 7 0 11 -4 7 -9 -9 -16 9 -20 28 -6 12 8 14 15
8 20 -6 3 -11 1 -11 -5 0 -6 -5 -8 -11 -4 -8 4 -7 9 2 15 18 11 44 -10 29 -25
-13 -13 -13 -29 0 -21 6 3 10 -3 10 -14 0 -29 17 -35 24 -8 6 21 7 21 21 3 8
-10 12 -22 10 -27 -3 -4 -1 -10 5 -14 6 -4 7 -11 4 -17 -4 -7 -2 -8 5 -4 6 4
8 13 5 19 -4 7 6 0 21 -14 l27 -27 -83 -117 c-142 -198 -175 -249 -181 -272
-10 -37 5 -26 44 35 21 31 80 121 132 200 l94 143 45 -63 c127 -180 149 -218
252 -448 64 -143 145 -390 145 -445 0 -41 -4 -47 -69 -107 -123 -114 -667
-508 -702 -508 -20 0 -156 67 -165 82 -3 4 -15 8 -27 8 -22 -1 -22 -1 -3 -15
11 -8 17 -15 13 -15 -4 0 -47 28 -95 63 -48 34 -141 98 -206 142 -65 44 -151
109 -190 145 -39 35 -63 55 -53 44 18 -21 14 -59 -5 -48 -6 4 -8 -2 -3 -15 4
-15 3 -21 -6 -19 -7 2 -18 -7 -24 -20 -17 -32 -56 -72 -71 -72 -6 0 -18 -8
-25 -17 -8 -9 -9 -14 -2 -10 8 5 9 0 5 -15 -4 -16 -7 -18 -9 -8 -2 9 -13 21
-24 28 -18 12 -19 11 -10 -7 6 -11 11 -26 10 -33 0 -7 -5 -2 -10 11 -5 13 -12
21 -15 18 -4 -3 1 -24 10 -47 9 -22 16 -46 16 -53 0 -6 -24 48 -54 121 -34 85
-62 139 -76 150 -32 23 -186 113 -292 170 -49 26 -88 53 -88 60 0 7 43 119 95
250 l96 237 102 39 c56 22 107 42 112 46 6 4 71 30 146 58 193 73 396 158 425
177 24 16 84 91 84 106 0 4 -37 -9 -82 -28 -46 -19 -162 -64 -258 -100 -96
-36 -199 -76 -229 -89 -60 -27 -65 -28 -56 -14 11 17 -14 11 -33 -8 -10 -10
-23 -17 -29 -15 -6 2 -14 -1 -18 -6 -3 -6 -15 -11 -26 -11 -13 0 -18 -4 -13
-12 4 -7 3 -8 -5 -4 -6 4 -36 -2 -67 -13 -30 -12 -59 -21 -64 -21 -20 0 -235
482 -247 554 -3 22 4 57 21 105 31 85 32 99 6 51 -16 -29 -19 -31 -20 -13 0
12 5 25 10 28 6 4 8 10 5 15 -3 5 6 43 20 86 14 42 25 79 25 83 -1 13 -41 -71
-80 -169 -22 -56 -51 -111 -63 -121 -12 -10 -74 -41 -137 -70 -63 -29 -174
-82 -246 -119 l-131 -68 40 -5 c37 -5 56 2 167 60 69 36 155 83 192 105 36 21
73 38 81 38 10 0 26 -32 48 -97 17 -54 64 -183 104 -288 40 -104 82 -221 94
-258 l22 -68 -21 -29 c-11 -15 -20 -31 -20 -33 0 -3 -19 -45 -41 -94 -23 -48
-77 -167 -121 -263 -43 -96 -78 -166 -77 -155 3 26 -23 115 -33 115 -4 0 -8 6
-8 14 0 35 -50 161 -80 201 -19 25 -36 45 -40 45 -10 0 -70 59 -70 69 0 5 -4
12 -9 15 -9 6 -34 -107 -76 -354 -15 -85 -35 -166 -43 -180 -9 -14 -27 -61
-39 -105 -54 -190 -166 -359 -295 -446 -133 -91 -417 -209 -543 -227 -56 -8
-68 -26 -30 -44 20 -9 36 -9 68 0 39 10 43 9 59 -11 10 -12 20 -34 23 -49 4
-15 17 -48 30 -74 17 -33 24 -41 27 -27 2 10 25 -35 52 -102 97 -239 254 -532
379 -708 103 -147 120 -164 176 -176 262 -56 543 -231 635 -396 41 -74 91
-233 53 -170 -7 12 -23 33 -36 48 -24 27 -25 27 -43 7 -24 -26 -32 -25 -48 5
-14 26 -30 33 -30 14 0 -8 -5 -8 -15 1 -8 7 -15 9 -15 4 0 -5 -8 3 -18 16 -17
25 -17 25 -23 -55 -4 -55 -8 -73 -13 -58 -5 12 -14 19 -21 17 -7 -3 -16 0 -20
5 -3 6 -11 9 -16 5 -5 -3 -21 2 -35 11 -47 31 -34 10 42 -64 40 -41 74 -78 74
-83 0 -4 -28 13 -62 39 -85 65 -148 105 -148 94 0 -5 6 -11 14 -14 7 -3 24
-20 37 -39 12 -18 19 -30 14 -26 -4 4 -15 3 -25 -2 -43 -23 -194 -40 -255 -29
-47 9 -119 42 -130 59 -3 5 -23 10 -44 10 -55 0 -131 12 -131 20 0 4 20 6 45
4 28 -2 44 0 40 6 -3 6 -15 10 -25 10 -10 0 -31 5 -47 12 -37 15 -83 16 -83 1
0 -20 107 -155 193 -242 68 -70 77 -83 54 -77 -23 5 -29 3 -37 -19 -5 -14 -16
-25 -23 -25 -19 0 -39 -48 -31 -74 12 -40 -11 -5 -28 42 l-16 47 -1 -36 c-1
-38 25 -138 40 -153 5 -6 9 -18 9 -28 0 -10 5 -18 10 -18 6 0 10 12 10 26 l0
26 25 -30 c14 -17 25 -34 25 -39 0 -15 70 -66 92 -68 3 0 17 -12 30 -26 132
-144 186 -206 202 -231 28 -44 29 -28 1 29 -29 62 -42 109 -27 99 6 -3 22 -39
37 -79 14 -39 33 -85 41 -101 8 -16 12 -31 10 -33 -7 -7 -64 30 -98 62 -30 28
-37 22 -13 -9 25 -33 16 -43 -10 -11 -15 19 -22 38 -19 50 4 16 3 17 -5 5 -8
-12 -13 -8 -25 20 -10 23 -15 28 -16 16 0 -20 0 -20 -16 0 -14 18 -15 16 -9
-21 9 -52 5 -47 -49 60 -25 50 -45 81 -46 71 0 -20 0 -20 -15 0 -14 17 -15 15
-9 -26 l6 -45 -21 30 c-37 53 -40 59 -55 95 l-15 35 4 -65 c3 -53 1 -61 -7
-42 -7 14 -17 21 -26 17 -12 -4 -12 -2 -3 8 8 11 6 18 -11 33 -17 15 -20 15
-9 2 7 -9 10 -22 6 -28 -8 -14 -21 2 -60 78 -31 60 -49 77 -34 33 15 -42 7
-59 -11 -25 -22 40 -90 105 -103 97 -6 -4 -8 0 -4 10 5 12 1 17 -13 17 -10 0
-22 -5 -26 -12 -5 -8 -1 -9 12 -4 15 6 17 5 7 -5 -19 -19 -31 -1 -35 51 l-3
45 -15 -28 -16 -28 -30 28 c-17 16 -29 34 -26 42 2 8 0 11 -6 8 -13 -9 -36 19
-27 32 3 7 0 8 -9 5 -16 -6 -33 36 -22 54 3 6 -1 23 -9 38 -12 23 -15 25 -21
11 -3 -10 -14 -15 -27 -13 -22 3 -37 26 -17 26 9 0 9 4 0 15 -9 11 -16 12 -20
5 -9 -15 -52 34 -54 62 -1 13 -7 22 -14 20 -10 -2 -10 3 -2 17 14 27 13 101
-1 101 -8 0 -10 -15 -6 -46 2 -26 1 -41 -3 -34 -4 7 -13 9 -21 5 -9 -6 -11 -3
-6 9 4 9 3 15 -1 12 -5 -3 -15 4 -23 16 -8 11 -20 26 -26 34 -7 7 -13 20 -13
28 0 9 -7 16 -16 16 -10 0 -14 6 -10 15 3 8 2 14 -3 12 -14 -4 -63 62 -55 74
4 7 3 9 -3 6 -14 -9 -24 17 -17 41 5 13 4 14 -4 3 -7 -10 -13 -8 -26 10 -9 13
-16 27 -16 32 0 4 -9 18 -20 30 -11 12 -18 27 -16 34 3 7 0 12 -6 10 -7 -1
-14 6 -16 16 -2 11 -11 27 -19 37 -9 10 -34 51 -55 92 -22 40 -44 81 -50 91
-5 10 -12 17 -14 14 -21 -21 319 -552 487 -762 283 -352 666 -679 1064 -908
129 -74 365 -191 455 -224 30 -12 75 -29 100 -38 202 -77 525 -153 806 -190
372 -48 669 -40 1079 31 159 27 441 95 535 127 101 36 254 93 287 108 24 10
45 19 48 19 17 0 293 134 390 190 120 70 445 288 475 320 3 3 41 35 85 70 227
185 485 481 717 826 93 140 313 556 373 709 285 722 370 1250 321 2000 l-5 70
10 -60 c6 -33 14 -199 18 -370 4 -170 8 -264 9 -207 1 59 6 101 11 98 5 -4 12
0 14 6 3 8 6 6 6 -4 1 -10 6 -18 11 -18 6 0 10 -12 10 -26 0 -14 -3 -23 -8
-20 -11 7 -4 -84 8 -99 12 -14 14 -123 6 -280 -8 -176 -13 -204 -70 -455 -78
-345 -315 -931 -489 -1210 -12 -19 -26 -43 -32 -52 -93 -165 -321 -480 -383
-532 -8 -6 -24 -21 -37 -33 -12 -13 -27 -23 -32 -23 -6 0 -13 -10 -16 -21 -5
-17 -11 -20 -31 -15 -18 4 -29 1 -39 -14 -7 -11 -17 -17 -20 -13 -12 11 -8 25
5 17 7 -5 9 -2 5 9 -4 11 -2 14 9 10 10 -4 12 0 8 11 -3 9 -9 16 -13 16 -10 0
-40 -37 -35 -44 2 -3 1 -4 -3 -1 -4 3 -50 -36 -103 -87 -120 -117 -180 -171
-250 -228 -30 -25 -57 -47 -60 -50 -3 -3 -31 -25 -62 -49 -32 -24 -58 -47 -58
-52 0 -5 -3 -8 -7 -7 -9 3 -99 -57 -123 -81 -13 -13 -13 -14 3 -8 9 3 17 2 17
-3 0 -5 7 -7 15 -4 10 4 13 13 9 26 -4 14 -2 18 5 14 6 -4 11 -2 11 4 0 6 5 8
11 4 8 -5 8 -8 0 -14 -7 -4 -9 -15 -5 -25 5 -11 4 -16 -3 -12 -10 6 -43 -26
-43 -43 0 -5 -12 -17 -27 -27 -16 -10 -33 -22 -39 -28 -41 -37 -64 -54 -83
-60 -12 -3 -21 -11 -21 -16 0 -5 -6 -9 -14 -9 -8 0 -16 -3 -18 -7 -1 -5 -39
-27 -83 -49 -138 -71 -170 -89 -173 -96 -2 -5 -14 -8 -27 -8 -13 0 -25 -5 -27
-12 -2 -6 -13 -12 -24 -13 -10 -1 -28 -6 -39 -12 -11 -6 -38 -16 -60 -23 -22
-7 -53 -20 -70 -28 -16 -9 -36 -15 -42 -14 -7 2 -13 -2 -13 -8 0 -5 -9 -10
-20 -10 -19 0 -108 -30 -167 -56 -17 -8 -39 -11 -50 -8 -12 4 -14 3 -6 -3 9
-6 -6 -13 -45 -21 -31 -7 -86 -20 -122 -28 -135 -32 -249 -55 -370 -75 -69
-11 -165 -27 -215 -35 -193 -31 -653 -20 -900 23 -49 8 -110 19 -135 23 -173
29 -272 52 -375 85 -38 13 -86 26 -105 30 -54 11 -251 80 -327 115 -123 57
-198 94 -203 100 -3 4 -25 14 -50 24 -25 10 -78 38 -118 62 -40 24 -75 44 -77
44 -7 0 -152 91 -275 173 -58 38 -168 123 -245 187 -177 149 -503 480 -575
584 -8 12 -35 47 -61 78 -69 84 -183 252 -255 377 -20 35 -48 80 -61 100 -78
113 -303 621 -356 801 -119 406 -173 895 -148 1340 14 250 28 354 76 574 67
307 101 433 161 603 20 54 51 141 69 194 30 84 68 165 197 423 16 32 45 83 64
113 19 29 34 55 34 57 0 2 36 58 80 124 44 66 80 123 80 127 0 8 70 102 144
195 170 213 552 589 688 677 24 16 88 60 144 98 132 92 170 114 349 204 44 22
87 45 95 51 8 5 47 24 85 41 39 17 126 57 195 89 69 32 143 64 165 71 22 7 45
16 50 20 6 3 35 12 65 19 30 7 71 19 90 26 59 23 160 51 265 74 109 23 399 50
454 42 19 -2 31 -1 28 4 -8 14 347 17 558 4z m-1738 -45 c0 -8 -4 -15 -8 -15
-4 0 -9 7 -13 15 -3 9 0 15 8 15 7 0 13 -7 13 -15z m-247 -29 c0 -3 -4 -8 -10
-11 -5 -3 -10 -1 -10 4 0 6 5 11 10 11 6 0 10 -2 10 -4z m-30 -36 c-8 -5 -19
-10 -25 -10 -5 0 -3 5 5 10 8 5 20 10 25 10 6 0 3 -5 -5 -10z m-45 -9 c3 -6
-4 -9 -15 -8 -11 1 -20 5 -20 9 0 11 28 10 35 -1z m120 -11 c3 -5 1 -10 -4
-10 -6 0 -11 5 -11 10 0 6 2 10 4 10 3 0 8 -4 11 -10z m-165 -4 c0 -3 -4 -8
-10 -11 -5 -3 -10 -1 -10 4 0 6 5 11 10 11 6 0 10 -2 10 -4z m-30 -20 c0 -2
-9 -6 -20 -9 -11 -3 -18 -1 -14 4 5 9 34 13 34 5z m55 -6 c-3 -5 -10 -10 -16
-10 -5 0 -9 5 -9 10 0 6 7 10 16 10 8 0 12 -4 9 -10z m-75 -30 c0 -5 -2 -10
-4 -10 -3 0 -8 5 -11 10 -3 6 -1 10 4 10 6 0 11 -4 11 -10z m-116 -52 c-5 -8
-1 -9 12 -4 14 5 16 4 8 -4 -9 -9 -17 -9 -34 0 -21 11 -22 10 -16 -6 5 -15 4
-16 -5 -7 -15 15 -3 33 22 33 13 0 18 -4 13 -12z m-74 -28 c0 -5 -8 -10 -17
-10 -15 0 -16 2 -3 10 19 12 20 12 20 0z m995 0 c8 -13 -5 -13 -25 0 -13 8
-13 10 2 10 9 0 20 -4 23 -10z m-860 -9 c3 -5 0 -13 -6 -17 -7 -4 -9 -3 -5 4
3 5 0 13 -6 15 -9 4 -10 6 -1 6 6 1 14 -3 18 -8z m4255 -467 c0 -8 -33 13 -65
41 -25 22 -23 22 18 -5 26 -17 47 -33 47 -36z m236 -186 c16 -17 -14 4 -66 47
-125 101 -146 124 -44 46 45 -34 94 -76 110 -93z m180 -160 l29 -33 -32 29
c-31 28 -38 36 -30 36 2 0 16 -15 33 -32z m64 -63 c13 -14 21 -25 18 -25 -2 0
-15 11 -28 25 -13 14 -21 25 -18 25 2 0 15 -11 28 -25z m-2240 -215 c0 -10 -6
-12 -200 -60 -130 -33 -165 -46 -91 -34 32 5 42 4 37 -4 -4 -7 -3 -12 3 -12
17 0 51 -42 51 -64 0 -10 3 -17 6 -13 7 7 54 -57 54 -73 0 -5 9 -26 20 -46 12
-21 27 -77 35 -136 8 -56 19 -106 24 -111 6 -6 11 -24 11 -39 0 -15 6 -28 13
-29 6 0 3 -4 -8 -9 -16 -7 -10 -9 25 -10 l45 -2 -40 -9 c-22 -4 -61 -8 -86 -8
-39 -1 -52 4 -83 34 -21 19 -80 60 -132 91 -52 31 -98 62 -101 68 -10 16 -5
64 23 226 14 80 32 151 40 159 7 8 86 31 176 52 190 44 178 42 178 29z m-385
-30 c10 -11 16 -20 13 -20 -3 0 -13 9 -23 20 -10 11 -16 20 -13 20 3 0 13 -9
23 -20z m2896 -57 c13 -16 12 -17 -3 -4 -10 7 -18 15 -18 17 0 8 8 3 21 -13z
m109 -142 c0 -10 -49 53 -50 63 0 6 11 -5 25 -24 14 -19 25 -36 25 -39z
m-1280 -19 c0 -15 -2 -15 -10 -2 -13 20 -13 33 0 25 6 -3 10 -14 10 -23z
m1539 -396 c-3 -3 -11 5 -18 17 -13 21 -12 21 5 5 10 -10 16 -20 13 -22z
m-3149 16 c0 -5 -9 -17 -21 -28 -21 -19 -21 -19 -8 9 12 26 29 37 29 19z
m3237 -189 c76 -159 137 -303 131 -309 -2 -2 -23 43 -47 99 -24 56 -72 162
-107 235 -34 72 -60 132 -58 132 3 0 39 -71 81 -157z m-3287 118 c-5 -11 -15
-23 -21 -27 -6 -3 -3 5 6 20 20 30 30 35 15 7z m1084 -73 c-12 -141 -46 -446
-55 -492 -8 -41 -6 -52 7 -68 10 -10 13 -18 7 -18 -5 0 -18 9 -28 19 -16 19
-16 28 8 198 14 98 31 228 37 288 13 116 16 135 25 135 2 0 2 -28 -1 -62z
m-117 -170 c-3 -7 -5 -2 -5 12 0 14 2 19 5 13 2 -7 2 -19 0 -25z m2770 -20
c-3 -7 -5 -2 -5 12 0 14 2 19 5 13 2 -7 2 -19 0 -25z m-1942 -9 c131 -16 227
-43 341 -99 126 -61 202 -127 244 -213 16 -34 32 -78 36 -97 5 -32 4 -34 -10
-16 -8 10 -19 15 -25 11 -6 -3 -11 -2 -11 4 0 5 -12 4 -27 -3 -16 -8 -48 -13
-73 -11 -25 1 -48 -3 -52 -9 -4 -6 -8 1 -8 16 0 15 -4 30 -10 33 -6 3 -10 -4
-10 -16 0 -22 0 -22 -22 -3 -13 12 -18 13 -13 4 7 -13 6 -13 -11 1 -10 8 -44
35 -74 59 -54 42 -53 42 21 -36 69 -72 170 -188 208 -239 8 -11 -25 18 -74 65
-48 47 -80 72 -71 56 10 -16 13 -25 7 -22 -6 4 -11 1 -11 -8 0 -8 -19 -32 -42
-53 -22 -21 -50 -47 -61 -57 -27 -26 -69 -23 -123 9 l-46 27 7 -23 c7 -22 7
-22 -9 -6 -10 9 -21 17 -25 17 -13 0 -77 138 -104 225 -22 72 -43 158 -76 324
-16 77 -16 77 124 60z m-889 -342 c-29 -170 -59 -314 -66 -320 -10 -9 -11 -8
-6 8 6 19 59 308 103 555 10 57 19 96 21 85 1 -11 -22 -159 -52 -328z m2928
318 c-4 -8 -11 -12 -16 -9 -6 4 -5 10 3 15 19 12 19 11 13 -6z m-73 -22 c-12
-20 -14 -14 -5 12 4 9 9 14 11 11 3 -2 0 -13 -6 -23z m23 -48 c3 -8 1 -15 -4
-15 -6 0 -10 7 -10 15 0 8 2 15 4 15 2 0 6 -7 10 -15z m21 -45 c3 -5 1 -10 -4
-10 -6 0 -11 5 -11 10 0 6 2 10 4 10 3 0 8 -4 11 -10z m1 -47 c-10 -10 -19 5
-10 18 6 11 8 11 12 0 2 -7 1 -15 -2 -18z m-5545 -10 c34 -87 57 -155 50 -147
-11 11 -71 152 -71 165 0 18 11 8 21 -18z m5226 -126 c67 -200 155 -595 152
-686 -1 -21 -7 2 -15 54 -37 238 -100 494 -166 675 -40 110 -43 121 -22 85 10
-16 32 -74 51 -128z m500 101 c-3 -8 -6 -5 -6 6 -1 11 2 17 5 13 3 -3 4 -12 1
-19z m-1500 -212 c34 -53 37 -79 14 -122 -12 -24 -20 -32 -21 -21 0 10 -4 15
-10 12 -6 -4 -10 15 -11 49 -1 31 -2 70 -3 86 -1 38 4 38 31 -4z m1570 2 c-3
-8 -6 -5 -6 6 -1 11 2 17 5 13 3 -3 4 -12 1 -19z m-2703 -138 c144 0 72 -10
-110 -15 -98 -3 -184 -5 -189 -5 -16 0 -48 -59 -65 -124 -16 -57 -18 -60 -61
-73 -24 -7 -55 -11 -69 -7 -24 5 -24 5 -6 -9 19 -14 19 -15 -4 -47 -13 -18
-23 -46 -23 -62 0 -18 -3 -24 -8 -16 -8 13 -9 82 -1 74 2 -3 11 2 20 10 13 13
13 17 1 29 -9 8 -21 10 -34 5 -19 -8 -19 -9 3 -9 12 -1 22 -5 22 -11 0 -12 -6
-13 -28 -1 -11 6 -38 5 -75 -4 -66 -15 -73 -12 -21 10 100 42 194 68 194 54 0
-5 7 -9 15 -9 18 0 20 16 3 23 -8 4 -7 6 4 6 16 1 38 49 56 121 6 27 13 35 32
36 14 1 29 9 35 19 9 15 22 17 120 11 61 -3 146 -6 189 -6z m1330 -212 c25
-29 43 -54 41 -56 -7 -7 -73 52 -74 66 -1 7 -8 15 -16 18 -8 4 -15 10 -15 15
0 20 21 6 64 -43z m1245 -22 c2 -45 -6 -27 -12 29 -4 34 -3 42 3 25 4 -14 8
-38 9 -54z m-1588 -102 c-17 -55 -44 -137 -60 -182 -17 -46 -40 -125 -50 -175
l-20 -92 -1 55 -2 55 -13 -35 c-7 -19 -14 -29 -14 -22 -1 17 -21 15 -21 -2 0
-7 -9 -16 -21 -19 -15 -4 -19 -2 -15 8 3 8 0 17 -6 21 -7 4 -8 3 -4 -4 4 -7 2
-12 -3 -12 -6 0 -11 -8 -11 -17 -1 -27 -46 64 -65 131 -23 79 -18 224 10 281
l20 39 55 -2 c35 -2 79 5 119 17 77 25 81 26 81 4 1 -12 9 -5 23 19 12 20 23
35 24 34 2 -2 -10 -48 -26 -102z m-1421 41 c0 -8 -4 -15 -10 -15 -5 0 -9 -5
-7 -11 1 -6 -2 -13 -8 -15 -5 -2 -10 10 -10 26 0 22 5 30 18 30 9 0 17 -7 17
-15z m3017 -7 c-3 -8 -6 -5 -6 6 -1 11 2 17 5 13 3 -3 4 -12 1 -19z m-1417
-28 c26 -50 27 -165 4 -231 -25 -69 -85 -152 -111 -154 -20 -1 -18 3 18 60 91
145 110 225 75 323 -19 53 -13 54 14 2z m-2024 -277 c-10 -10 -19 5 -10 18 6
11 8 11 12 0 2 -7 1 -15 -2 -18z m-2071 -166 c198 -105 251 -139 258 -166 5
-20 4 -20 -23 1 -16 12 -36 18 -45 14 -10 -4 -14 -2 -9 5 4 8 -1 9 -16 4 -12
-4 -20 -3 -17 2 3 4 -6 13 -19 20 -13 6 -24 7 -24 2 0 -5 5 -9 11 -9 5 0 7 -4
4 -10 -3 -5 -1 -10 5 -10 6 0 8 -5 4 -11 -3 -6 -17 -8 -31 -4 -14 3 -31 1 -38
-5 -12 -10 -41 -10 -60 2 -5 3 -25 9 -42 13 -36 7 -40 14 -20 34 10 10 9 11
-4 6 -9 -3 -23 3 -34 15 -22 25 -32 25 -38 3 -4 -14 -5 -12 -6 5 0 12 -8 23
-16 23 -8 1 -21 2 -27 4 -7 1 -23 -4 -35 -12 -14 -8 -23 -9 -23 -3 0 5 5 10
10 10 6 0 10 5 10 11 0 8 -4 9 -13 0 -8 -6 -17 -8 -21 -4 -4 4 -4 -1 0 -11 5
-12 4 -17 -2 -13 -6 3 -18 -7 -28 -24 -14 -24 -36 -39 -36 -25 0 7 102 211
112 223 13 16 15 14 213 -90z m3095 -76 c13 -25 13 -309 0 -466 -27 -310 -56
-499 -105 -675 -48 -172 -110 -324 -128 -313 -6 3 -7 1 -3 -5 8 -14 -42 -112
-57 -112 -5 0 -4 6 2 14 6 8 11 18 9 22 -4 18 14 54 24 48 6 -4 8 -2 4 4 -3 6
4 35 18 64 13 29 34 81 47 115 13 34 26 60 29 58 3 -2 5 7 6 18 0 12 19 110
42 217 25 123 42 234 46 300 l5 105 -14 -63 c-8 -35 -22 -70 -30 -79 -9 -8
-60 -35 -113 -59 -115 -52 -111 -56 15 -12 51 17 95 29 99 26 3 -4 0 -17 -7
-30 -14 -24 -44 -124 -58 -191 -5 -21 -15 -45 -24 -55 -8 -9 -22 -34 -30 -54
-9 -21 -21 -38 -26 -38 -6 0 -11 -8 -11 -18 0 -10 -11 -29 -25 -42 -14 -13
-25 -27 -25 -32 0 -16 -55 -88 -73 -93 -9 -4 -15 -10 -12 -15 10 -17 -222 -48
-379 -51 l-71 -2 60 -10 c42 -7 112 -7 235 1 97 6 189 8 205 4 27 -8 25 -9
-26 -20 -30 -6 -73 -15 -97 -18 -25 -4 -38 -10 -32 -14 16 -10 -25 -48 -65
-59 -16 -4 -29 -14 -27 -20 1 -7 -1 -10 -5 -8 -5 3 -19 -1 -33 -8 l-25 -14 25
-9 c23 -9 24 -10 5 -17 -11 -4 -31 -11 -44 -16 -37 -15 -212 0 -235 20 -16 13
-18 13 -14 1 3 -8 14 -39 24 -68 11 -29 24 -50 30 -48 28 11 170 -187 158
-219 -6 -14 -4 -17 9 -12 20 8 66 -62 112 -171 34 -81 49 -143 61 -247 10 -93
-5 -59 -21 46 -17 114 -28 145 -93 274 l-51 100 0 -84 c-1 -47 -8 -110 -17
-141 -16 -58 -17 -59 -96 -98 -3 -2 -7 41 -8 95 -3 197 -15 209 -22 23 -6
-160 -10 -188 -46 -330 -22 -85 -52 -180 -66 -210 -26 -56 -34 -45 -16 21 15
55 28 202 20 219 -5 9 -11 -3 -15 -35 -10 -73 -30 -120 -51 -120 -9 0 -19 -6
-22 -13 -3 -10 -9 -9 -24 5 -18 16 -17 11 6 -41 15 -33 24 -61 22 -63 -2 -2
-18 20 -36 49 -17 29 -29 45 -26 36 3 -12 -9 -33 -37 -62 -34 -37 -48 -45 -76
-44 -36 1 -61 -21 -61 -53 0 -35 -18 -28 -35 14 -45 111 -58 323 -30 462 34
164 130 400 212 521 22 33 54 84 72 115 l32 57 -28 5 c-16 3 -33 1 -40 -4 -6
-6 -28 -10 -50 -10 -21 1 -47 0 -58 0 -11 -1 -60 1 -109 4 -110 8 -110 8 -252
-157 -127 -147 -162 -203 -230 -365 -41 -100 -56 -127 -73 -129 -27 -4 -27 16
0 99 46 141 122 274 229 399 25 30 119 145 207 255 89 110 171 211 184 225 12
14 31 36 42 50 24 29 -71 -67 -161 -163 -60 -65 -63 -67 -72 -45 -8 20 -9 19
-9 -14 -1 -36 -10 -51 -83 -131 -9 -11 -21 -16 -27 -12 -6 3 -11 0 -11 -7 0
-10 -2 -10 -8 -1 -5 7 -24 11 -45 10 -20 -2 -37 0 -37 4 0 3 -13 12 -30 19
-16 7 -32 22 -36 33 -4 12 -13 27 -20 34 -18 18 -23 -6 -27 -122 l-2 -90 -18
50 c-44 120 -28 364 36 545 106 305 332 562 667 760 309 182 674 329 945 379
33 6 69 12 80 15 11 2 23 4 27 5 4 0 12 -8 18 -18z m-3454 -62 c329 -86 630
-228 884 -418 109 -81 126 -96 221 -192 101 -101 174 -200 234 -319 48 -96
108 -258 101 -274 -2 -6 -5 -4 -5 5 -1 9 -11 28 -23 42 -13 15 -36 60 -51 101
-35 90 -53 102 -62 43 -8 -48 -93 -310 -123 -377 -35 -78 -24 -15 23 124 25
74 54 184 66 244 l22 109 -29 39 c-15 22 -28 40 -29 40 0 1 -10 5 -22 8 -22 7
-22 6 -16 -79 3 -47 1 -91 -4 -98 -11 -15 -11 -22 6 -70 7 -21 10 -41 7 -44
-3 -4 -6 2 -6 12 0 14 -3 15 -15 5 -8 -7 -15 -18 -15 -24 0 -6 5 -4 10 4 13
20 12 10 -1 -29 -12 -35 -34 -43 -23 -8 3 12 3 19 -1 15 -11 -11 -15 -59 -4
-52 5 3 9 -2 9 -11 0 -9 -4 -14 -9 -11 -5 3 -15 -14 -22 -38 -7 -25 -17 -42
-21 -40 -4 3 -8 0 -8 -5 0 -6 -5 -11 -11 -11 -6 0 -9 7 -5 15 4 12 2 13 -13 6
-36 -20 -50 46 -27 124 l7 20 -11 -20 c-5 -11 -15 -33 -22 -50 l-12 -30 -4 37
c-2 20 4 61 13 90 23 76 65 332 64 381 -2 31 -3 34 -5 12 -13 -110 -87 -459
-101 -475 -3 -3 -30 22 -61 56 -31 34 -75 76 -97 95 -31 27 -24 15 31 -51 225
-272 480 -629 460 -643 -12 -8 -41 22 -151 158 -128 157 -148 176 -113 104 10
-22 18 -42 16 -44 -2 -2 -30 -6 -63 -9 -33 -3 -89 -10 -125 -14 -49 -7 -70 -6
-85 5 -60 41 -34 -18 95 -212 115 -174 223 -376 258 -482 28 -83 46 -234 38
-318 -12 -134 -21 -124 -21 24 0 108 -4 155 -14 174 -8 15 -18 24 -24 20 -5
-3 -6 4 -2 18 4 13 4 21 -1 16 -4 -4 -13 7 -19 25 -6 18 -16 32 -23 30 -7 -1
-12 3 -12 9 0 5 -4 8 -9 5 -5 -3 -11 3 -14 14 -4 14 -10 18 -22 14 -13 -5 -15
-14 -11 -36 3 -18 2 -27 -4 -23 -6 3 -10 -1 -10 -9 0 -8 4 -18 10 -21 10 -6 2
-65 -11 -79 -12 -14 -11 -73 1 -81 6 -3 10 -1 10 6 0 7 2 10 5 8 7 -8 -6 -49
-16 -49 -5 0 -9 8 -10 18 0 13 -2 14 -6 2 -3 -8 -11 -18 -17 -22 -6 -4 -11
-15 -11 -25 0 -10 -6 -17 -13 -15 -8 1 -11 -2 -7 -8 3 -5 1 -10 -4 -10 -6 0
-11 -7 -11 -15 0 -8 -6 -15 -14 -15 -21 0 -12 53 29 171 37 106 79 288 73 316
-3 10 -10 -16 -17 -57 -7 -41 -38 -153 -68 -247 -53 -165 -55 -175 -45 -225 5
-29 8 -55 6 -58 -3 -2 -15 7 -27 21 -12 14 -35 34 -52 44 -30 17 -30 17 4 -15
27 -25 31 -34 20 -41 -8 -5 -22 -9 -31 -9 -10 0 -18 -4 -18 -10 0 -16 -87 -12
-128 7 -20 9 -40 17 -44 18 -5 2 -9 3 -10 4 -2 2 -16 4 -31 6 -31 4 -31 -1 -1
-72 7 -18 11 -33 9 -33 -8 0 -49 80 -67 130 -70 204 -74 390 -12 647 31 126
56 185 135 314 32 53 59 98 59 100 0 2 -101 4 -225 4 -136 0 -228 4 -234 10
-7 7 69 10 227 11 190 1 242 4 265 16 25 14 14 15 -135 12 -90 -2 -149 0 -133
4 23 6 -1 11 -95 21 -69 7 -127 15 -130 17 -2 3 6 7 18 11 12 3 19 9 16 14 -3
5 -10 7 -15 3 -15 -9 -142 94 -144 117 -1 17 -55 52 -55 35 0 -3 41 -103 72
-176 6 -14 12 -31 14 -39 1 -7 12 -20 23 -28 12 -8 21 -19 21 -25 0 -6 8 -20
17 -30 9 -10 17 -28 18 -40 2 -20 1 -20 -12 -3 -7 11 -13 22 -13 26 0 3 -15
22 -32 41 -18 19 -63 93 -100 164 -142 275 -209 632 -194 1044 6 175 24 343
40 368 10 16 20 15 112 -9z m2074 -33 c0 -3 -15 -14 -32 -26 l-33 -22 30 26
c31 27 35 29 35 22z m-110 -80 c0 -2 -8 -10 -17 -17 -16 -13 -17 -12 -4 4 13
16 21 21 21 13z m3344 -61 c-4 -8 -11 -15 -16 -15 -6 0 -5 6 2 15 7 8 14 15
16 15 2 0 1 -7 -2 -15z m-3849 -113 c-3 -3 -11 0 -18 7 -9 10 -8 11 6 5 10 -3
15 -9 12 -12z m3500 -40 c-3 -3 -11 0 -18 7 -9 10 -8 11 6 5 10 -3 15 -9 12
-12z m-3341 -207 c22 -76 34 -159 41 -285 6 -107 5 -116 -14 -135 -50 -50 -51
-50 -51 2 -1 93 -20 464 -26 491 l-6 27 21 -25 c11 -14 27 -47 35 -75z m3386
-65 c0 -5 -5 -10 -11 -10 -5 0 -7 5 -4 10 3 6 8 10 11 10 2 0 4 -4 4 -10z
m877 -12 c-3 -8 -6 -5 -6 6 -1 11 2 17 5 13 3 -3 4 -12 1 -19z m-20 -140 c-3
-7 -5 -2 -5 12 0 14 2 19 5 13 2 -7 2 -19 0 -25z m-10 -60 c-3 -7 -5 -2 -5 12
0 14 2 19 5 13 2 -7 2 -19 0 -25z m-22 -120 c-45 -224 -169 -617 -271 -860
-71 -167 -213 -449 -299 -593 -193 -321 -516 -711 -786 -949 -323 -286 -679
-514 -1079 -692 -230 -102 -671 -228 -975 -279 -284 -47 -761 -69 -1012 -46
-375 35 -682 96 -997 198 -447 144 -970 450 -1361 796 -137 121 -341 330 -455
466 -59 71 -200 251 -200 257 0 11 11 -1 51 -53 140 -186 370 -435 559 -603
52 -47 97 -87 100 -90 3 -3 34 -28 69 -55 34 -28 86 -68 115 -91 94 -75 311
-215 391 -254 17 -8 37 -20 45 -26 31 -25 228 -122 235 -116 3 3 10 0 15 -8 8
-13 10 -12 10 3 0 12 4 16 13 11 8 -5 7 -2 -2 9 -11 13 -17 15 -28 6 -7 -7
-16 -9 -20 -5 -3 3 -1 6 6 6 7 0 9 5 6 10 -3 6 -16 10 -28 10 -20 1 -20 2 -4
11 9 5 22 7 28 4 5 -4 16 -1 24 5 11 9 23 9 45 2 16 -6 30 -8 30 -5 0 3 8 -1
19 -11 11 -10 25 -14 36 -10 13 5 16 4 11 -5 -5 -8 -3 -11 5 -10 8 1 23 -1 34
-6 11 -4 49 -19 85 -33 80 -31 223 -77 270 -87 19 -4 41 -11 50 -16 8 -4 60
-19 115 -33 419 -104 859 -150 1230 -127 460 29 930 133 1350 297 77 31 149
60 160 66 11 6 94 49 185 94 91 46 209 112 263 148 54 37 102 66 107 66 6 0
10 4 10 8 0 4 12 15 28 24 30 18 182 130 226 168 17 14 64 54 105 89 98 83
251 238 371 376 52 61 99 115 105 121 5 6 21 26 35 44 14 18 37 49 53 68 15
19 37 50 48 69 11 18 25 31 30 27 5 -3 9 4 9 14 0 11 7 22 15 26 8 3 15 12 15
21 0 8 4 15 9 15 5 0 12 8 15 18 9 26 31 60 55 88 11 13 21 27 21 31 0 6 7 15
57 68 15 17 27 34 25 38 -4 14 52 60 57 46 2 -7 -1 -15 -7 -17 -7 -2 -12 -9
-12 -15 0 -6 10 -1 23 11 19 18 26 19 36 9 11 -10 12 -8 6 11 -7 25 12 31 22
6 5 -14 8 -12 19 7 15 28 18 52 3 27 -15 -27 -29 -21 -29 12 0 17 5 30 11 30
6 0 9 7 6 15 -4 8 -2 17 3 20 12 7 41 -6 34 -16 -3 -5 0 -9 5 -9 14 0 14 13
-1 28 -6 6 -8 15 -3 19 4 5 10 2 12 -4 8 -22 21 -14 32 19 9 24 8 34 -1 41 -9
6 -8 7 5 3 34 -11 167 296 291 674 37 114 116 418 117 453 0 12 3 17 6 10 2
-7 -3 -50 -12 -95z m-4616 -120 c0 -31 -1 -31 -10 -10 -5 13 -7 28 -3 33 10
16 14 9 13 -23z m4041 -63 c6 -8 9 -19 5 -25 -7 -11 -34 15 -35 33 0 12 17 8
30 -8z m-20 -47 c0 -4 -7 -8 -15 -8 -8 0 -15 4 -15 8 0 5 7 9 15 9 8 0 15 -4
15 -9z m25 -8 c3 -5 1 -10 -4 -10 -6 0 -11 5 -11 10 0 6 2 10 4 10 3 0 8 -4
11 -10z m78 -11 c-6 -6 -9 -17 -7 -24 3 -7 1 -16 -5 -20 -7 -4 -11 5 -11 25 0
18 4 29 10 25 6 -3 10 -1 10 6 0 7 3 9 7 6 4 -4 2 -12 -4 -18z m-4255 -391
c-5 -15 -75 -33 -159 -41 -75 -7 -67 -2 50 28 103 27 114 29 109 13z m1342 -4
c0 -2 -9 -4 -20 -4 -11 0 -20 4 -20 9 0 5 9 7 20 4 11 -3 20 -7 20 -9z m-248
-23 c136 -32 145 -40 45 -38 -68 2 -90 -1 -97 -13 -6 -9 -10 -10 -10 -3 0 7
-6 11 -12 9 -7 -3 -28 -7 -46 -10 l-32 -6 22 40 c13 22 28 40 35 40 7 0 50 -9
95 -19z m2910 -273 c-7 -7 -12 -8 -12 -2 0 14 12 26 19 19 2 -3 -1 -11 -7 -17z
m-3564 -203 c16 -38 32 -83 36 -100 l7 -30 -19 30 c-10 17 -23 44 -30 60 -6
17 -22 59 -35 95 -39 104 -39 107 -13 60 14 -25 38 -76 54 -115z m3927 135 c3
-5 1 -10 -4 -10 -6 0 -11 5 -11 10 0 6 2 10 4 10 3 0 8 -4 11 -10z m-35 -70
c0 -5 -2 -10 -4 -10 -3 0 -8 5 -11 10 -3 6 -1 10 4 10 6 0 11 -4 11 -10z
m-101 -62 c-5 -10 -12 -18 -14 -18 -2 0 -3 8 -2 18 0 10 7 19 13 19 9 0 10 -5
3 -19z m1 -58 c0 -5 -2 -10 -4 -10 -3 0 -8 5 -11 10 -3 6 -1 10 4 10 6 0 11
-4 11 -10z m-7212 -45 c-3 -3 -9 2 -12 12 -6 14 -5 15 5 6 7 -7 10 -15 7 -18z
m4592 -39 c0 -2 -13 -9 -30 -15 -35 -12 -41 -5 -7 9 25 10 37 12 37 6z m10
-32 c0 -8 -71 -36 -78 -30 -3 3 10 12 29 20 37 17 49 19 49 10z m800 -105 c76
-16 190 -52 190 -58 0 -3 -18 -7 -39 -7 -22 -1 -50 -9 -63 -18 -12 -9 -29 -16
-37 -16 -8 0 -22 -7 -32 -16 -19 -17 -136 -22 -166 -6 -10 6 -22 10 -28 10
-13 1 -20 32 -7 32 6 0 8 9 5 20 -15 56 69 84 177 59z m-2543 -171 c-3 -8 -6
-5 -6 6 -1 11 2 17 5 13 3 -3 4 -12 1 -19z m141 -289 c-22 -55 -66 -124 -75
-116 -2 3 6 20 19 39 13 19 34 57 47 86 31 67 38 61 9 -9z m-993 -517 c4 -15
17 -51 30 -79 18 -38 29 -51 40 -47 9 4 15 1 15 -8 0 -8 8 -23 18 -34 24 -27
65 -104 55 -104 -4 0 -25 27 -47 60 -40 63 -54 73 -37 26 22 -55 -19 -17 -59
56 l-28 52 -6 -35 c-3 -19 -7 -45 -9 -59 l-3 -25 -14 28 c-7 15 -21 27 -30 27
-9 0 -20 3 -24 7 -3 4 -14 8 -24 9 -9 2 -18 7 -20 13 -8 25 -44 54 -67 54 -14
0 -25 4 -25 9 0 5 4 7 9 3 13 -7 24 30 17 58 -3 12 3 4 13 -17 47 -97 121 -73
121 38 0 12 6 28 13 35 10 10 16 7 34 -14 13 -14 25 -38 28 -53z m-120 29 c18
-41 15 -55 -13 -70 -15 -8 -17 -2 -19 50 -1 32 2 59 6 59 4 0 16 -18 26 -39z
m374 -6 c17 -20 31 -40 31 -45 0 -6 8 -10 18 -10 9 0 25 -15 35 -32 41 -76 40
-76 99 -18 29 28 54 47 56 42 1 -5 -6 -33 -18 -61 -24 -61 -25 -120 -5 -187
18 -58 18 -64 5 -64 -5 0 -10 6 -10 14 0 7 -7 19 -15 26 -13 10 -15 9 -16 -11
l0 -24 -10 23 c-5 13 -13 21 -18 18 -5 -3 -23 17 -41 44 -18 28 -36 50 -40 50
-4 0 -10 -12 -13 -28 -3 -15 -15 -38 -26 -51 -18 -21 -21 -22 -27 -7 -5 14 5
105 21 189 5 26 -14 21 -27 -8 -8 -18 -17 -24 -29 -20 -11 4 -21 -1 -27 -11
-9 -16 -11 -15 -33 4 -12 12 -26 22 -30 22 -4 0 -7 17 -7 39 -1 34 2 39 27 44
28 6 51 41 51 77 0 29 14 25 49 -15z m1916 -54 c-7 -44 -16 -89 -20 -100 -7
-24 -35 -29 -35 -6 0 23 55 185 63 185 2 0 -1 -36 -8 -79z m-1460 -35 c15 -37
16 -38 34 -22 14 13 24 15 38 8 10 -6 39 -10 64 -9 43 0 52 -4 116 -61 38 -34
74 -62 80 -62 13 0 62 -101 67 -137 2 -16 1 -22 -1 -15 -3 7 -9 10 -14 7 -5
-4 -20 18 -33 48 -31 70 -46 80 -35 24 4 -23 8 -59 9 -79 0 -34 -2 -37 -21
-30 -12 5 -27 25 -34 47 -8 21 -21 45 -30 54 -15 15 -16 12 -11 -34 3 -27 8
-61 11 -75 3 -14 3 -19 -1 -12 -3 6 -10 10 -14 7 -5 -3 -19 22 -31 55 -23 62
-39 77 -39 36 0 -14 -4 -28 -10 -31 -19 -11 -10 -26 11 -20 18 6 19 4 10 -13
-16 -29 -75 -76 -79 -63 -2 6 -10 11 -17 11 -20 0 -24 23 -14 70 7 29 6 47 -1
54 -7 7 -10 6 -10 -2 0 -7 -5 -11 -12 -9 -7 1 -24 -19 -38 -45 -28 -54 -41
-56 -51 -9 -11 54 -60 179 -75 192 -18 14 -17 11 1 -41 17 -49 20 -90 5 -90
-5 0 -10 -16 -10 -35 0 -25 -4 -35 -15 -35 -11 0 -14 7 -10 28 4 22 4 23 -4 7
-8 -19 -10 -18 -21 10 -24 59 -17 182 12 210 4 4 4 23 1 43 l-6 37 48 -53 c29
-32 51 -49 55 -42 4 6 14 8 23 4 22 -8 22 5 0 35 -9 14 -11 21 -5 17 9 -5 12
10 13 56 0 62 1 62 14 33 8 -16 21 -48 30 -69z m3138 -3 c2 -5 -5 -17 -16 -27
-17 -16 -19 -17 -14 -3 4 10 1 17 -6 17 -8 0 -6 4 3 10 18 12 28 12 33 3z
m-3713 -73 c0 -5 -4 -10 -10 -10 -5 0 -10 5 -10 10 0 6 5 10 10 10 6 0 10 -4
10 -10z m1497 -146 c30 -118 0 -58 -54 106 -2 8 5 0 17 -17 12 -18 28 -58 37
-89z m-112 41 c-33 -76 -51 -100 -61 -84 -4 7 -2 15 4 17 7 2 12 9 12 16 0 12
58 106 66 106 2 0 -7 -25 -21 -55z m-345 7 c0 -21 -2 -24 -10 -12 -13 20 -13
53 0 45 6 -3 10 -18 10 -33z m138 -38 c26 -25 74 -114 61 -114 -5 0 -9 5 -9
11 0 8 -5 7 -15 -1 -19 -16 -14 -20 -63 65 -54 92 -45 106 26 39z m-91 24 c9
-15 42 -136 43 -157 0 -8 -8 -3 -20 10 -18 23 -19 23 -21 4 -1 -19 -38 116
-39 143 0 6 6 12 14 12 8 0 18 -6 23 -12z"/>
<path d="M5060 9429 c0 -5 5 -7 10 -4 6 3 10 8 10 11 0 2 -4 4 -10 4 -5 0 -10
-5 -10 -11z"/>
<path d="M5175 9430 c22 -4 43 -5 48 -1 4 4 -14 8 -40 8 l-48 1 40 -8z"/>
<path d="M5264 9431 c3 -4 24 -8 46 -8 22 0 40 4 40 8 0 5 -21 9 -46 9 -25 0
-43 -4 -40 -9z"/>
<path d="M5373 9423 c9 -2 23 -2 30 0 6 3 -1 5 -18 5 -16 0 -22 -2 -12 -5z"/>
<path d="M4490 9395 c-70 -15 -93 -23 -69 -24 20 -1 50 4 67 10 18 6 64 17
104 24 43 8 58 13 38 13 -19 0 -82 -10 -140 -23z"/>
<path d="M5330 9400 c0 -5 5 -10 11 -10 5 0 7 5 4 10 -3 6 -8 10 -11 10 -2 0
-4 -4 -4 -10z"/>
<path d="M4358 9363 c7 -3 16 -2 19 1 4 3 -2 6 -13 5 -11 0 -14 -3 -6 -6z"/>
<path d="M4290 9353 c-8 -2 -21 -7 -29 -9 -8 -2 -12 -6 -10 -9 3 -2 25 2 49
10 25 7 36 14 25 14 -11 -1 -27 -3 -35 -6z"/>
<path d="M4167 9323 c-32 -9 -56 -17 -54 -20 6 -5 116 23 125 31 8 8 -4 6 -71
-11z"/>
<path d="M4078 9293 c7 -3 16 -2 19 1 4 3 -2 6 -13 5 -11 0 -14 -3 -6 -6z"/>
<path d="M4025 9280 c-13 -6 -15 -9 -5 -9 8 0 22 4 30 9 18 12 2 12 -25 0z"/>
<path d="M4050 9260 c0 -5 5 -10 11 -10 5 0 7 5 4 10 -3 6 -8 10 -11 10 -2 0
-4 -4 -4 -10z"/>
<path d="M4015 9250 c3 -5 8 -10 11 -10 2 0 4 5 4 10 0 6 -5 10 -11 10 -5 0
-7 -4 -4 -10z"/>
<path d="M3835 9220 c-44 -16 -75 -29 -69 -29 12 -1 155 46 162 54 10 10 -13
3 -93 -25z"/>
<path d="M3718 9173 c7 -3 16 -2 19 1 4 3 -2 6 -13 5 -11 0 -14 -3 -6 -6z"/>
<path d="M3652 9134 c10 -10 20 -16 22 -13 3 3 -5 11 -17 18 -21 13 -21 12 -5
-5z"/>
<path d="M8900 7060 c0 -5 5 -10 10 -10 6 0 10 5 10 10 0 6 -4 10 -10 10 -5 0
-10 -4 -10 -10z"/>
<path d="M8910 7035 c0 -15 18 -40 24 -34 3 3 -1 14 -9 25 -8 10 -14 15 -15 9z"/>
<path d="M8980 6950 c0 -5 5 -10 10 -10 6 0 10 5 10 10 0 6 -4 10 -10 10 -5 0
-10 -4 -10 -10z"/>
<path d="M9141 6935 c1 -19 18 -51 18 -35 0 8 -4 22 -9 30 -5 8 -9 11 -9 5z"/>
<path d="M9118 6811 c-10 -34 1 -45 23 -25 22 20 26 42 5 25 -11 -10 -15 -8
-18 6 -3 15 -5 13 -10 -6z"/>
<path d="M9200 6769 c0 -5 5 -7 10 -4 6 3 10 8 10 11 0 2 -4 4 -10 4 -5 0 -10
-5 -10 -11z"/>
<path d="M9225 6711 c-3 -5 -1 -12 5 -16 5 -3 10 1 10 9 0 18 -6 21 -15 7z"/>
<path d="M931 5134 c0 -11 3 -14 6 -6 3 7 2 16 -1 19 -3 4 -6 -2 -5 -13z"/>
<path d="M3045 8384 l-30 -26 33 22 c17 12 32 23 32 26 0 7 -4 5 -35 -22z"/>
<path d="M2705 8125 c-27 -25 -45 -44 -40 -44 6 0 30 20 55 44 58 57 50 57
-15 0z"/>
<path d="M5988 8043 c7 -3 16 -2 19 1 4 3 -2 6 -13 5 -11 0 -14 -3 -6 -6z"/>
<path d="M2579 8013 c-13 -16 -12 -17 4 -4 9 7 17 15 17 17 0 8 -8 3 -21 -13z"/>
<path d="M2439 7872 c-188 -191 -408 -480 -550 -721 -99 -165 -198 -383 -294
-641 -229 -617 -303 -1287 -219 -1970 19 -155 52 -322 66 -335 7 -7 8 -1 4 20
-3 17 -8 50 -10 75 -3 25 -10 95 -16 155 -5 61 -12 128 -15 151 -2 22 0 80 5
129 6 61 6 91 -1 96 -7 4 -5 8 4 12 9 3 16 20 17 41 2 65 4 76 12 76 4 0 8 5
8 11 0 5 -4 8 -9 5 -5 -3 -3 11 5 32 7 20 13 53 14 72 0 19 4 41 9 49 5 8 6
24 1 37 -6 14 -5 26 1 29 5 4 7 11 4 16 -4 5 -2 9 3 9 5 0 8 8 8 18 -2 44 17
169 28 182 7 8 18 37 25 65 13 52 49 102 141 197 69 72 95 106 105 138 4 14
13 32 20 40 16 19 75 174 75 196 0 9 9 28 19 43 11 15 22 52 25 82 3 30 15 83
26 119 11 36 23 90 27 120 3 30 12 64 19 74 7 11 21 44 30 75 9 31 23 72 31
92 8 19 16 46 17 60 3 27 24 95 37 121 5 10 6 24 3 33 -4 8 1 17 10 21 11 4
16 19 16 45 0 22 5 48 12 58 9 15 9 23 -1 35 -8 9 -19 16 -26 16 -22 0 -23 24
-3 42 24 21 7 33 -22 16 -17 -11 -22 -11 -30 2 -9 13 -10 13 -10 0 0 -9 6 -22
13 -29 10 -10 9 -11 -5 -6 -12 5 -20 1 -24 -8 -3 -9 -11 -14 -18 -11 -20 8
-84 -24 -91 -46 -4 -11 -10 -18 -14 -16 -3 3 -17 -11 -30 -30 -13 -19 -27 -34
-32 -34 -5 0 -9 -6 -9 -14 0 -22 -16 -28 -30 -11 -11 13 -10 14 1 10 10 -4 15
4 16 24 3 43 95 230 169 343 13 21 24 41 24 46 0 4 8 17 18 28 10 10 28 37 42
59 62 103 231 311 391 479 45 48 80 89 77 91 -3 3 -56 -48 -119 -113z m-309
-881 c0 -6 -4 -13 -10 -16 -5 -3 -10 1 -10 9 0 9 5 16 10 16 6 0 10 -4 10 -9z"/>
<path d="M3410 7582 l-22 -18 73 -33 c41 -19 105 -48 142 -66 65 -31 70 -32
115 -20 26 7 40 14 32 14 -9 1 -72 30 -140 64 -151 77 -171 83 -200 59z"/>
<path d="M2782 6843 c-7 -39 -12 -85 -12 -102 0 -16 -4 -33 -10 -36 -5 -3 -10
-14 -10 -23 0 -10 -8 -34 -19 -54 -12 -25 -15 -39 -7 -42 6 -2 -7 -5 -29 -6
-52 -3 133 -29 190 -28 l40 1 -37 4 c-34 4 -39 8 -47 41 -16 58 -31 162 -32
217 -1 28 -4 61 -8 75 -6 20 -10 10 -19 -47z m6 -228 l0 -30 -14 34 c-8 18
-12 41 -8 50 5 14 7 13 14 -4 5 -11 9 -33 8 -50z"/>
<path d="M5061 6744 c0 -11 3 -14 6 -6 3 7 2 16 -1 19 -3 4 -6 -2 -5 -13z"/>
<path d="M8180 6681 c0 -6 4 -13 10 -16 6 -3 7 1 4 9 -7 18 -14 21 -14 7z"/>
<path d="M8208 6625 c2 -14 -2 -33 -9 -43 -13 -15 -12 -16 4 -3 17 14 24 71 8
71 -4 0 -6 -11 -3 -25z"/>
<path d="M5013 6565 c0 -22 2 -30 4 -17 2 12 2 30 0 40 -3 9 -5 -1 -4 -23z"/>
<path d="M2860 6579 c0 -5 5 -7 10 -4 6 3 10 8 10 11 0 2 -4 4 -10 4 -5 0 -10
-5 -10 -11z"/>
<path d="M5042 6570 c0 -14 2 -19 5 -12 2 6 2 18 0 25 -3 6 -5 1 -5 -13z"/>
<path d="M2598 6563 c7 -3 16 -2 19 1 4 3 -2 6 -13 5 -11 0 -14 -3 -6 -6z"/>
<path d="M2986 6356 c-62 -97 -113 -163 -102 -133 3 9 9 25 12 35 3 9 -24 -14
-61 -52 -73 -77 -111 -91 -163 -61 -26 15 -26 16 -2 9 24 -6 24 -6 5 9 -19 14
-17 15 28 22 26 4 58 5 71 1 16 -4 28 0 37 11 13 15 10 15 -26 9 -58 -11 -187
-15 -209 -7 -16 6 -14 10 15 33 19 14 52 35 74 46 22 12 37 21 33 22 -13 0
-103 -32 -108 -39 -3 -4 -32 -23 -65 -41 -75 -43 -57 -18 42 57 101 76 102 86
2 19 -80 -53 -84 -55 -103 -38 -18 16 -19 16 -14 -5 7 -25 -1 -30 -18 -13 -7
7 -20 7 -35 2 -13 -5 -41 -8 -62 -6 -20 1 -40 -2 -43 -7 -3 -5 -10 -7 -15 -4
-18 12 -31 -51 -27 -136 3 -76 6 -90 32 -123 26 -35 28 -43 23 -100 -8 -74
-43 -311 -52 -346 -5 -20 11 -9 76 53 172 164 423 302 679 372 47 13 74 24 60
24 -19 1 -22 3 -10 11 8 5 12 12 8 15 -3 4 5 41 18 83 27 84 41 217 30 276 -6
31 -53 97 -67 95 -2 0 -31 -42 -63 -93z"/>
<path d="M4335 6410 c-3 -5 -2 -10 4 -10 5 0 13 5 16 10 3 6 2 10 -4 10 -5 0
-13 -4 -16 -10z"/>
<path d="M5345 6410 c-4 -6 -11 -8 -16 -4 -5 3 -1 -10 8 -29 15 -29 21 -33 37
-25 17 9 19 7 13 -26 -5 -34 -5 -35 11 -20 18 19 25 44 11 44 -5 0 -9 7 -9 16
0 11 -5 14 -16 10 -12 -5 -15 -2 -10 10 6 15 4 15 -10 3 -15 -12 -16 -11 -10
9 8 23 2 30 -9 12z"/>
<path d="M5438 6238 c-8 -18 -66 -98 -128 -178 -62 -80 -120 -156 -129 -170
-8 -14 -18 -27 -21 -30 -3 -3 -17 -23 -30 -45 -13 -22 -27 -42 -30 -45 -18
-15 -62 -81 -57 -86 25 -25 427 510 427 569 0 27 -15 20 -32 -15z"/>
<path d="M4660 6176 c0 -13 22 -51 96 -161 77 -115 146 -202 123 -155 -7 14
-25 44 -40 67 -16 23 -29 45 -29 48 0 13 -93 151 -121 179 -16 15 -29 25 -29
22z"/>
<path d="M4502 5838 c40 -52 397 -416 398 -406 0 4 -35 43 -77 87 -101 102
-128 132 -128 142 0 4 -12 17 -28 29 -15 12 -25 26 -21 31 3 5 0 8 -8 7 -7 -2
-12 3 -10 10 1 6 -4 11 -10 10 -7 -2 -12 3 -10 10 1 6 -1 11 -5 10 -5 -2 -32
23 -62 55 -63 67 -87 76 -39 15z"/>
<path d="M5449 5737 c-15 -11 -89 -73 -135 -114 -81 -70 -96 -85 -92 -88 2 -3
20 10 40 28 19 17 50 43 68 57 30 23 60 48 119 99 26 23 26 37 0 18z"/>
<path d="M5756 5737 c3 -10 9 -15 12 -12 3 3 0 11 -7 18 -10 9 -11 8 -5 -6z"/>
<path d="M2517 5202 c-10 -10 -17 -22 -17 -27 0 -4 9 2 20 15 11 13 20 25 20
27 0 7 -8 2 -23 -15z"/>
<path d="M2475 5156 c-6 -7 -34 -42 -64 -77 l-54 -64 7 47 c4 26 3 49 -3 52
-5 3 -12 -20 -16 -55 -9 -75 -54 -142 -99 -146 -16 -1 -31 -4 -34 -7 -3 -3
-11 -1 -19 5 -7 6 -13 8 -13 3 -1 -24 -20 25 -20 51 0 47 -11 79 -21 63 -5 -7
-9 -23 -9 -35 0 -13 -4 -23 -10 -23 -5 0 -10 12 -10 26 0 14 -4 23 -10 19 -13
-8 -13 -112 1 -250 6 -60 11 -120 11 -133 0 -13 5 -21 12 -18 6 3 30 11 54 18
46 13 56 44 14 42 -21 -1 -21 1 -7 22 28 43 15 37 -22 -10 -38 -46 -55 -48
-32 -4 19 35 124 173 206 270 40 47 73 89 73 93 0 4 18 30 40 57 22 28 40 55
40 59 0 12 -4 11 -15 -5z"/>
<path d="M2226 4677 c3 -10 9 -15 12 -12 3 3 0 11 -7 18 -10 9 -11 8 -5 -6z"/>
<path d="M1526 3945 c11 -55 25 -110 44 -167 24 -71 82 -200 87 -195 2 3 -8
37 -22 78 -33 93 -36 103 -37 109 0 3 -4 13 -10 24 -8 14 -7 17 2 11 8 -5 11
-3 8 6 -3 8 -12 13 -19 11 -10 -2 -11 0 -4 7 6 6 9 26 7 45 -3 27 -8 33 -20
29 -11 -5 -14 -2 -9 10 3 9 2 17 -3 17 -5 0 -6 7 -3 17 4 10 2 14 -4 10 -6 -4
-14 -1 -17 5 -3 7 -3 0 0 -17z"/>
<path d="M8365 3730 c-3 -5 -1 -10 4 -10 6 0 11 5 11 10 0 6 -2 10 -4 10 -3 0
-8 -4 -11 -10z"/>
<path d="M7490 3460 c-9 -6 -10 -10 -3 -10 6 0 15 5 18 10 8 12 4 12 -15 0z"/>
<path d="M7445 3440 c-3 -6 1 -7 9 -4 18 7 21 14 7 14 -6 0 -13 -4 -16 -10z"/>
<path d="M7135 3340 c-3 -6 1 -7 9 -4 18 7 21 14 7 14 -6 0 -13 -4 -16 -10z"/>
<path d="M7115 3250 c-3 -6 1 -7 9 -4 18 7 21 14 7 14 -6 0 -13 -4 -16 -10z"/>
<path d="M7050 3209 c-22 -18 -22 -19 -3 -10 12 6 25 16 28 21 9 15 3 12 -25
-11z"/>
<path d="M6979 3153 c-13 -16 -12 -17 4 -4 9 7 17 15 17 17 0 8 -8 3 -21 -13z"/>
<path d="M2061 2884 c0 -11 3 -14 6 -6 3 7 2 16 -1 19 -3 4 -6 -2 -5 -13z"/>
<path d="M7946 2451 c-3 -5 2 -15 12 -22 15 -12 16 -12 5 2 -7 9 -10 19 -6 22
3 4 4 7 0 7 -3 0 -8 -4 -11 -9z"/>
<path d="M7940 2410 c0 -5 5 -10 11 -10 5 0 7 5 4 10 -3 6 -8 10 -11 10 -2 0
-4 -4 -4 -10z"/>
<path d="M2460 2370 c0 -5 5 -10 10 -10 6 0 10 5 10 10 0 6 -4 10 -10 10 -5 0
-10 -4 -10 -10z"/>
<path d="M2886 2158 c-6 -19 -4 -49 3 -42 6 6 9 54 4 54 -2 0 -5 -6 -7 -12z"/>
<path d="M7190 1791 c0 -6 4 -13 10 -16 6 -3 7 1 4 9 -7 18 -14 21 -14 7z"/>
<path d="M5924 4378 l-19 -23 23 19 c12 11 22 21 22 23 0 8 -8 2 -26 -19z"/>
<path d="M5829 4273 c-13 -16 -12 -17 4 -4 16 13 21 21 13 21 -2 0 -10 -8 -17
-17z"/>
<path d="M5796 4233 c-6 -14 -5 -15 5 -6 7 7 10 15 7 18 -3 3 -9 -2 -12 -12z"/>
<path d="M6566 3803 c-6 -14 -5 -15 5 -6 7 7 10 15 7 18 -3 3 -9 -2 -12 -12z"/>
<path d="M4550 4179 c0 -5 5 -7 10 -4 6 3 10 8 10 11 0 2 -4 4 -10 4 -5 0 -10
-5 -10 -11z"/>
<path d="M3410 4012 c1 -21 19 -34 34 -25 15 8 14 11 -9 21 -14 6 -25 8 -25 4z"/>
<path d="M4360 2940 c0 -11 2 -20 4 -20 2 0 6 9 9 20 3 11 1 20 -4 20 -5 0 -9
-9 -9 -20z"/>
<path d="M4350 2900 c0 -5 5 -10 10 -10 6 0 10 5 10 10 0 6 -4 10 -10 10 -5 0
-10 -4 -10 -10z"/>
<path d="M8736 3185 c4 -8 8 -15 10 -15 2 0 4 7 4 15 0 8 -4 15 -10 15 -5 0
-7 -7 -4 -15z"/>
<path d="M3386 1862 c-2 -4 -1 -14 5 -22 7 -12 9 -10 9 8 0 23 -5 28 -14 14z"/>
<path d="M3703 1927 c4 -10 7 -23 7 -28 0 -5 5 -9 10 -9 16 0 12 26 -7 41 -15
12 -16 12 -10 -4z"/>
<path d="M4173 1689 c4 -13 7 -32 7 -42 0 -10 4 -16 8 -13 11 7 3 64 -11 73
-6 4 -8 -2 -4 -18z"/>
</g>
</svg>
